<?xml version="1.0" encoding="UTF-8"?>
<svg width="30px" height="30px" viewBox="0 0 30 30" version="1.1" xmlns="http://www.w3.org/2000/svg" xmlns:xlink="http://www.w3.org/1999/xlink">
    <title>Desktop</title>
    <g id="Desktop" stroke="none" stroke-width="1" fill="none" fill-rule="evenodd">
        <g id="accepted" transform="translate(2.000000, 0.000000)" fill="#FFFFFF" fill-rule="nonzero">
            <path d="M4.57142857,28 L2.42857143,28 C2.19187796,28 2,28.2238576 2,28.5 C2,28.7761424 2.19187796,29 2.42857143,29 L4.57142857,29 C4.80812204,29 5,28.7761424 5,28.5 C5,28.2238576 4.80812204,28 4.57142857,28 Z" id="Path"></path>
            <path d="M5.66666667,28 L5.33333333,28 C5.14923842,28 5,28.2238576 5,28.5 C5,28.7761424 5.14923842,29 5.33333333,29 L5.66666667,29 C5.85076158,29 6,28.7761424 6,28.5 C6,28.2238576 5.85076158,28 5.66666667,28 Z" id="Path"></path>
            <path d="M2.47058824,9 L17.5294118,9 C17.7893105,9 18,8.77614237 18,8.5 L18,6.5 C18,6.22385762 17.7893105,6 17.5294118,6 L2.47058824,6 C2.21068953,6 2,6.22385762 2,6.5 L2,8.5 C2,8.77614237 2.21068953,9 2.47058824,9 Z M2.94117647,7 L17.0588235,7 L17.0588235,8 L2.94117647,8 L2.94117647,7 Z" id="Shape"></path>
            <path d="M2.47058824,13 L17.5294118,13 C17.7893105,13 18,12.7761424 18,12.5 L18,10.5 C18,10.2238576 17.7893105,10 17.5294118,10 L2.47058824,10 C2.21068953,10 2,10.2238576 2,10.5 L2,12.5 C2,12.7761424 2.21068953,13 2.47058824,13 Z M2.94117647,11 L17.0588235,11 L17.0588235,12 L2.94117647,12 L2.94117647,11 Z" id="Shape"></path>
            <path d="M2.47058824,16 L17.5294118,16 C17.7893105,16 18,15.7761424 18,15.5 L18,13.5 C18,13.2238576 17.7893105,13 17.5294118,13 L2.47058824,13 C2.21068953,13 2,13.2238576 2,13.5 L2,15.5 C2,15.7761424 2.21068953,16 2.47058824,16 Z M2.94117647,14 L17.0588235,14 L17.0588235,15 L2.94117647,15 L2.94117647,14 Z" id="Shape"></path>
            <path d="M11.5238095,17 L2.47619048,17 C2.21319774,17 2,17.2238576 2,17.5 C2,17.7761424 2.21319774,18 2.47619048,18 L11.5238095,18 C11.7868023,18 12,17.7761424 12,17.5 C12,17.2238576 11.7868023,17 11.5238095,17 Z" id="Path"></path>
            <path d="M8.53333333,19 L2.46666667,19 C2.20893378,19 2,19.2238576 2,19.5 C2,19.7761424 2.20893378,20 2.46666667,20 L8.53333333,20 C8.79106622,20 9,19.7761424 9,19.5 C9,19.2238576 8.79106622,19 8.53333333,19 Z" id="Path"></path>
            <path d="M3.5,21 C3.77614238,21 4,20.7761424 4,20.5 C4,20.2238576 3.77614238,20 3.5,20 L2.5,20 C2.22385763,20 2,20.2238576 2,20.5 C2,20.7761424 2.22385763,21 2.5,21 L3.5,21 Z" id="Path"></path>
            <path d="M5.66666667,21 C5.85076158,21 6,20.7761424 6,20.5 C6,20.2238576 5.85076158,20 5.66666667,20 L5.33333333,20 C5.14923842,20 5,20.2238576 5,20.5 C5,20.7761424 5.14923842,21 5.33333333,21 L5.66666667,21 Z" id="Path"></path>
            <path d="M26,22.7419355 C25.996355,19.7241893 23.7376934,17.2109379 20.8,16.9558065 L20.8,4.35483871 C20.8000046,4.22650636 20.7502025,4.10342846 20.66155,4.01268145 L16.8797318,0.14171371 C16.7910747,0.0509713734 16.6708314,0 16.5454545,0 L0.472727273,0 C0.211647209,0 2.84217094e-14,0.216636411 2.84217094e-14,0.483870968 L2.84217094e-14,29.516129 C2.84217094e-14,29.7833636 0.211647209,30 0.472727273,30 L20.3272727,30 C20.5883528,30 20.8,29.7833636 20.8,29.516129 L20.8,28.5280645 C23.7376934,28.2729331 25.996355,25.7596816 26,22.7419355 Z M17.0181818,1.65199597 L19.18605,3.87096774 L17.0181818,3.87096774 L17.0181818,1.65199597 Z M0.945454545,29.0322581 L0.945454545,0.967741935 L16.0727273,0.967741935 L16.0727273,4.35483871 C16.0727273,4.62207327 16.2843745,4.83870968 16.5454545,4.83870968 L19.8545455,4.83870968 L19.8545455,16.9558065 C16.9157428,17.2081433 14.6560171,19.7232906 14.6560171,22.7419355 C14.6560171,25.7605804 16.9157428,28.2757276 19.8545455,28.5280645 L19.8545455,29.0322581 L0.945454545,29.0322581 Z M20.3272727,27.5806452 C17.7164721,27.5806452 15.6,25.414281 15.6,22.7419355 C15.6,20.0695899 17.7164721,17.9032258 20.3272727,17.9032258 C22.9380734,17.9032258 25.0545455,20.0695899 25.0545455,22.7419355 C25.0515821,25.4130236 22.9368449,27.577612 20.3272727,27.5806452 L20.3272727,27.5806452 Z" id="Shape"></path>
            <path d="M23.8534529,21.1301797 C23.7596856,21.0468273 23.6325068,21 23.4998963,21 C23.3672858,21 23.2401071,21.0468273 23.1463397,21.1301797 L19.9224558,23.9958323 L17.7572419,22.8410826 C17.6040668,22.7593899 17.4134964,22.7565402 17.2573167,22.8336072 C17.1011372,22.9106741 17.0030756,23.0559493 17.000071,23.214709 C16.9970665,23.3734687 17.0895753,23.5215936 17.2427504,23.6032863 L19.7427088,24.9365873 C19.9394032,25.041561 20.1912304,25.0140757 20.3535112,24.8699222 L23.8534529,21.7588867 C23.9472825,21.6755318 24,21.5624492 24,21.4445332 C24,21.3266172 23.9472825,21.2135346 23.8534529,21.1301797 L23.8534529,21.1301797 Z" id="Path"></path>
        </g>
    </g>
</svg>