<svg id="Capa_1" data-name="Capa 1" xmlns="http://www.w3.org/2000/svg" viewBox="0 0 1970.82 460.44"><defs><style>.cls-1{fill:#fff;}</style></defs><path class="cls-1" d="M872.43,419.28C841.81,421.68,814.87,411,789,396c-36.11-21-67.54-48.47-101-73.08-11.06-8.13-22-16.41-33.68-23.72-3.93-2.46-5.94-2.17-8.38,2.13-14.81,26.08-53.56,87-68.52,113-2,3.52-4.78,4.86-8.82,4.84-22.41-.12-44.82,0-67.23-.09-7.3,0-7.92-1.27-4.22-7.7,20.71-35.84,65-106.78,85.82-142.54,2.79-4.8,2-7.16-3.23-8.71C559.57,254.2,539.18,250,518,250.9a154.66,154.66,0,0,0-50,10.4c-2,.78-4.63,3.22-6.12.7-1.24-2.12,2-3.25,3.58-4.45,35.08-27,74.92-36.85,118.55-32.37,37.24,3.82,70.07,19.18,101.38,38.87,29.17,18.35,56.38,39.54,85.43,58.05s58.75,35.11,92.62,43.11c29.3,6.93,58.16,5.68,86.89-3.27a198.39,198.39,0,0,0,42.54-19.33c1.7-1,3.74-3.24,5.63-1.51s-.18,4-1.19,5.64c-24.27,39.44-57.83,65.61-104.62,72.41C886.07,420.11,879.19,419.28,872.43,419.28Z"/><path class="cls-1" d="M871.69,297.87c-21.4.15-41.81-5.08-62-11.39-5.76-1.8-9.64-5.37-12.67-10.67q-30-52.58-60.43-104.88c-2.27-3.9-3.82-10.72-7.68-10.72-4,0-5.2,6.87-7.5,10.79-12.69,21.7-25.36,43.41-37.81,65.25-2.65,4.65-5.61,5.21-9.79,2.57a263.05,263.05,0,0,0-52.18-25.73c-6.14-2.19-3.29-5.57-1.4-8.85q25.24-43.61,50.51-87.2Q697,71.49,723.14,25.85c.73-1.28,1.57-2.5,2.37-3.75,2.44-3.84,4.68-3.75,7,.22q24.18,42,48.41,84,22.5,39,45,77.9,30.95,53.49,61.9,107c2.87,5,2.12,6.4-3.45,6.63C880.15,298,875.92,297.87,871.69,297.87Z"/><path class="cls-1" d="M899.32,294.48c2-2.72,4.35-3.17,6.43-4,43.84-17.61,74-61.61,73.63-108.78-.48-52.64-25.78-89.62-73.08-111.86a81.55,81.55,0,0,0-20.48-6.52c-1.55-.27-4.14.08-4-2.08.13-2.59,2.85-1.92,4.59-2C916,58,942.76,66.17,966,84.79c23.89,19.18,39,44.06,43.22,74.31,8.08,58.62-22.3,108.71-75.43,129.37-10,3.88-20.29,7.29-31.33,6.75A21.37,21.37,0,0,1,899.32,294.48Z"/><path class="cls-1" d="M781.06,302.28c5.26,2.07,9.9,3.83,14.49,5.71a197.52,197.52,0,0,0,76,15c50.33-.12,91.59-20.06,124.31-58.27,8.57-10,16-20.72,23.23-31.64,1.08-1.63,1.62-4.63,4.35-3.54,2.33.93,1.76,3.7,1.52,5.7-3.06,25.23-10.87,48.49-27.66,68.25-22,25.93-51.22,37.12-83.79,42.86-24.59,4.33-48,.88-71-6.92a194,194,0,0,1-57.64-31.36,21.56,21.56,0,0,1-3.09-3.17C781.41,304.51,781.44,303.81,781.06,302.28Z"/><path class="cls-1" d="M512.93,267.21c13.47-1.41,27.92,2.53,42.31,6.77,1.56.46,3.92.78,3.73,2.75-.26,2.61-2.9,2-4.62,1.94-14.79-.25-29.44.4-44.05,3.32a215.83,215.83,0,0,0-71.79,28.66c-2.15,1.33-4.72,4.78-7,2.36s1.3-4.88,2.74-7C452.66,278.8,478.28,265.78,512.93,267.21Z"/><path class="cls-1" d="M1486.28,387c0,9-3.6,16.82-9.61,23.43a31.74,31.74,0,0,1-23.43,9.61c-9.61,0-17.42-3-24-9.61-6.61-6-9.61-13.82-9.61-23.43V291.49c0-16.82-6.61-31.24-18.63-42.65-12-12-26.43-17.42-42.65-17.42-15.62,0-29.44,4.8-40.85,15-11.42,9.62-18,22.83-19.83,37.85V386.41c0,9.61-3.6,17.42-10.21,24s-14.42,9.61-24,9.61a31.74,31.74,0,0,1-23.43-9.61c-6.61-6.61-10.21-14.42-10.21-24V290.89c0-16.82-6.61-31.24-18-42.65-12-11.42-26.44-16.82-43.26-16.82-15.62,0-28.83,4.8-40.25,15-11.41,9.62-18,22.23-20.42,37.25V386.41c0,9.61-3,17.42-9.62,24s-14.41,9.61-24,9.61-17.42-3-23.43-9.61c-6.6-6.61-9.61-14.42-9.61-24V277.07c3.61-31.84,17.42-58.87,42.05-80.5,24-21.63,52.87-32.44,85.31-32.44,37.85,0,69.69,14.42,94.92,42.05,25.83-27.63,57.67-42.05,94.92-42.05,34.84,0,64.88,12.62,90.11,36.65s37.85,53.46,37.85,88.91Zm-19.22-96.72c0-30-10.82-55.27-31.84-75.7-21.63-21-47.46-31.24-76.9-31.24-42.65,0-73.89,18-94.92,54.67-21-36.64-52.87-54.67-94.92-54.67-26.43,0-51.06,9.62-73.89,29.44q-34.24,28.85-34.24,68.49V386.41c0,9.61,4.2,14.42,13.81,14.42s15-4.81,15-14.42V282.48c2.4-19.83,10.82-36.65,25.83-49.86,15.62-13.82,33-20.43,53.47-20.43,21.63,0,40.85,7.81,57.07,22.83s24,33.64,24,55.27v96.12c0,9.61,4.81,14.42,13.82,14.42,10.21,0,15-4.81,15-14.42V302.9l-.6-12.61v-7.81q4.5-30.65,27-50.46c15-13.22,33-19.83,53.47-19.83A79.48,79.48,0,0,1,1414.79,235q23.43,22.53,23.43,55.87V387c0,9.61,4.81,13.82,15,13.82,9,0,13.82-4.21,13.82-13.82Z"/><path class="cls-1" d="M1770.43,386.41c0,9.61-3,17.42-9.61,24s-14.42,9.61-24,9.61c-13.22,0-23.43-6-30-18.62-19.83,12.61-41.45,19.22-64.88,19.22-35.45,0-65.48-12.61-90.72-37.24-24.63-25.24-37.24-55.27-37.24-90.72s12.61-66.08,37.24-91.31c25.24-25.23,55.27-37.85,90.72-37.85s66.08,12.62,91.31,37.25c24.63,24.63,37.25,55.27,37.25,91.91Zm-19.22-93.72c0-30.64-10.82-56.47-31.84-78.1-21.63-21-47.46-31.84-77.5-31.84-30.64,0-56.47,10.82-77.5,31.84-21,21.63-31.84,47.46-31.84,78.1,0,30,10.81,55.87,32.44,76.9,21,21.63,46.86,31.84,76.9,31.84a100,100,0,0,0,48.06-12c15.62-8.41,27-19.22,33-33v30c0,9.61,4.81,14.42,13.82,14.42q14.42,0,14.42-14.42ZM1699.54,235c15.62,16.22,23.43,34.84,23.43,57.67,0,21.63-7.81,40.85-24,56.47s-34.84,23.43-57.07,23.43-41.45-7.81-57.07-23.43a77.61,77.61,0,0,1-23.43-56.47c0-22.83,7.81-41.45,23.43-57.67,15.62-15.62,34.84-23.43,57.07-23.43C1664.7,211.59,1683.32,219.4,1699.54,235ZM1685.12,336q18-18,18-43.26c0-17.42-6-31.84-17.42-43.85-12-12-26.43-18-43.85-18-16.82,0-31.84,6-43.26,18-12,12-18,26.43-18,43.85q0,25.23,18,43.26c11.42,12,26.44,18,43.26,18S1673.11,348,1685.12,336Z"/><path class="cls-1" d="M1936.83,173.74a31.75,31.75,0,0,1,9.62,23.43,33.68,33.68,0,0,1-9,23.43c-6.6,6.61-14.41,10.21-24,10.21-16.82,0-31.24,5.41-43.25,17.43q-18,17.11-18,43.25V387c0,9.61-3,17.42-9.62,23.43-6,6.61-13.81,9.61-23.43,9.61s-17.42-3-24-9.61c-6.61-6-9.62-13.82-9.62-23.43V291.49c0-35.44,12.62-66.08,37.25-90.71,25.23-24.63,55.27-37.25,90.71-37.25C1922.42,163.53,1930.22,167.14,1936.83,173.74Zm-9,23.43q0-14.41-14.42-14.42c-30,0-55.87,10.82-76.89,31.84-21.63,21-31.84,46.26-31.84,76.9V387c0,9.61,4.8,13.82,14.41,13.82s14.42-4.21,14.42-13.82V291.49c0-22.23,7.81-40.85,23.43-56.47a77.62,77.62,0,0,1,56.47-23.43Q1927.83,211.59,1927.82,197.17Z"/><path class="cls-1" d="M275.47,392.07c0,9.61-3,17.42-9.61,24s-14.42,9.61-24,9.61c-13.22,0-23.43-6-30-18.62-19.82,12.62-41.45,19.22-64.88,19.22-35.44,0-65.48-12.61-90.71-37.24C31.57,363.84,19,333.8,19,298.35S31.57,232.27,56.2,207c25.23-25.23,55.27-37.85,90.71-37.85s66.08,12.62,91.32,37.25c24.63,24.63,37.24,55.27,37.24,91.91Zm-19.22-93.72c0-30.63-10.82-56.47-31.84-78.09-21.63-21-47.46-31.84-77.5-31.84-30.64,0-56.47,10.81-77.5,31.84-21,21.62-31.84,47.46-31.84,78.09,0,30,10.82,55.88,32.44,76.9,21,21.63,46.86,31.84,76.9,31.84a100,100,0,0,0,48.06-12c15.62-8.41,27-19.23,33-33.05v30c0,9.61,4.81,14.42,13.82,14.42q14.41,0,14.42-14.42Zm-51.67-57.67C220.2,256.9,228,275.53,228,298.35c0,21.63-7.81,40.86-24,56.48s-34.84,23.42-57.07,23.42-41.45-7.81-57.07-23.42a77.63,77.63,0,0,1-23.43-56.48c0-22.82,7.81-41.45,23.43-57.67,15.62-15.62,34.84-23.43,57.07-23.43C169.74,217.25,188.36,225.06,204.58,240.68ZM190.16,341.61q18-18,18-43.26c0-17.42-6-31.84-17.42-43.85-12-12-26.44-18-43.86-18-16.82,0-31.84,6-43.25,18-12,12-18,26.43-18,43.85q0,25.25,18,43.26c11.41,12,26.43,18,43.25,18S178.15,353.62,190.16,341.61Z"/><path class="cls-1" d="M446.68,367.44c6.61,6.61,10.21,14.42,10.21,24s-3.6,17.42-10.21,24c-7.21,6.61-15,10.21-24.63,10.21-38.45,0-70.29-15-95.52-45.65q-36-42.36-36-100.93V67.06c0-9.61,3.6-17.42,10.21-24a33.71,33.71,0,0,1,24-10.21c9.61,0,17.42,3.61,24,10.21C356,49.64,359,57.45,359,67.06V279.13a87.62,87.62,0,0,0,16.82,52.27c12,16.82,27.64,25.83,46.26,25.83A32.68,32.68,0,0,1,446.68,367.44Zm-9.61,24c0-9.61-4.81-15-15-15-24,0-44.45-10.21-60.68-31.24-14.41-18.62-21.62-40.85-21.62-66.08V67.06c0-9.61-5.41-14.41-15-14.41s-14.42,4.8-14.42,14.41V279.13c0,33,10.21,61.88,30.64,87.11q32.44,39.64,81.1,39.65C432.26,405.89,437.07,401.08,437.07,391.47Z"/></svg>