<?xml version="1.0" encoding="UTF-8"?>
<svg width="1928px" height="408px" viewBox="0 0 1928 408" version="1.1" xmlns="http://www.w3.org/2000/svg" xmlns:xlink="http://www.w3.org/1999/xlink">
    <title>logo-almar-positivo_Mesa de trabajo 1 copia 6</title>
    <g id="Page-1" stroke="none" stroke-width="1" fill="none" fill-rule="evenodd">
        <g id="logo-almar-positivo_Mesa-de-trabajo-1-copia-6" fill-rule="nonzero">
            <path d="M853.43,400.28 C822.81,402.68 795.87,392 770,377 C733.89,356 702.46,328.53 669,303.92 C657.94,295.79 647,287.51 635.32,280.2 C631.39,277.74 629.38,278.03 626.94,282.33 C612.13,308.41 573.38,369.33 558.42,395.33 C556.42,398.85 553.64,400.19 549.6,400.17 C527.19,400.05 504.78,400.17 482.37,400.08 C475.07,400.08 474.45,398.81 478.15,392.38 C498.86,356.54 543.15,285.6 563.97,249.84 C566.76,245.04 565.97,242.68 560.74,241.13 C540.57,235.2 520.18,231 499,231.9 C481.872172,232.571958 464.975193,236.08653 449,242.3 C447,243.08 444.37,245.52 442.88,243 C441.64,240.88 444.88,239.75 446.46,238.55 C481.54,211.55 521.38,201.7 565.01,206.18 C602.25,210 635.08,225.36 666.39,245.05 C695.56,263.4 722.77,284.59 751.82,303.1 C780.87,321.61 810.57,338.21 844.44,346.21 C873.74,353.14 902.6,351.89 931.33,342.94 C946.221926,338.194864 960.500938,331.70654 973.87,323.61 C975.57,322.61 977.61,320.37 979.5,322.1 C981.39,323.83 979.32,326.1 978.31,327.74 C954.04,367.18 920.48,393.35 873.69,400.15 C867.07,401.11 860.19,400.28 853.43,400.28 Z" id="Path" fill="#FEF67E"></path>
            <path d="M852.69,278.87 C831.29,279.02 810.88,273.79 790.69,267.48 C784.93,265.68 781.05,262.11 778.02,256.81 C758.02,221.756667 737.876667,186.796667 717.59,151.93 C715.32,148.03 713.77,141.21 709.91,141.21 C705.91,141.21 704.71,148.08 702.41,152 C689.72,173.7 677.05,195.41 664.6,217.25 C661.95,221.9 658.99,222.46 654.81,219.82 C638.421541,209.340353 620.9212,200.710921 602.63,194.09 C596.49,191.9 599.34,188.52 601.23,185.24 C618.056667,156.166667 634.893333,127.1 651.74,98.04 C669.246667,67.6733333 686.713333,37.2766667 704.14,6.85 C704.87,5.57 705.71,4.35 706.51,3.1 C708.95,-0.74 711.19,-0.65 713.51,3.32 C729.63,31.32 745.766667,59.32 761.92,87.32 C776.92,113.32 791.92,139.286667 806.92,165.22 C827.553333,200.88 848.186667,236.546667 868.82,272.22 C871.69,277.22 870.94,278.62 865.37,278.85 C861.15,279 856.92,278.87 852.69,278.87 Z" id="Path" fill="#FEF67E"></path>
            <path d="M880.32,275.48 C882.32,272.76 884.67,272.31 886.75,271.48 C930.59,253.87 960.75,209.87 960.38,162.7 C959.9,110.06 934.6,73.08 887.3,50.84 C880.790879,47.7726481 873.904419,45.580279 866.82,44.32 C865.27,44.05 862.68,44.4 862.82,42.24 C862.95,39.65 865.67,40.32 867.41,40.24 C897,39 923.76,47.17 947,65.79 C970.89,84.97 986,109.85 990.22,140.1 C998.3,198.72 967.92,248.81 914.79,269.47 C904.79,273.35 894.5,276.76 883.46,276.22 C882.396183,276.052801 881.346527,275.80543 880.32,275.48 L880.32,275.48 Z" id="Path" fill="#FEF67E"></path>
            <path d="M762.06,283.28 C767.32,285.35 771.96,287.11 776.55,288.99 C800.644897,298.957473 826.474911,304.055502 852.55,303.99 C902.88,303.87 944.14,283.93 976.86,245.72 C985.43,235.72 992.86,225 1000.09,214.08 C1001.17,212.45 1001.71,209.45 1004.44,210.54 C1006.77,211.47 1006.19981,214.24 1005.96,216.24 C1002.9,241.47 995.09,264.73 978.3,284.49 C956.3,310.42 927.08,321.61 894.51,327.35 C869.92,331.68 846.51,328.23 823.51,320.43 C802.655353,313.325442 783.163251,302.72044 765.87,289.07 C764.73396,288.122156 763.698503,287.059891 762.78,285.9 C762.41,285.51 762.44,284.81 762.06,283.28 Z" id="Path" fill="#7DCBFD"></path>
            <path d="M493.93,248.21 C507.4,246.8 521.85,250.74 536.24,254.98 C537.8,255.44 540.16,255.76 539.97,257.73 C539.71,260.34 537.07,259.73 535.35,259.67 C520.56,259.42 505.91,260.07 491.3,262.99 C465.840284,268.145316 441.520315,277.854332 419.51,291.65 C417.36,292.98 414.79,296.43 412.51,294.01 C410.23,291.59 413.81,289.13 415.25,287.01 C433.66,259.8 459.28,246.78 493.93,248.21 Z" id="Path" fill="#7DCBFD"></path>
            <path d="M1467.28,368 C1467.28,377 1463.68,384.82 1457.67,391.43 C1451.53149,397.7452 1443.04503,401.22599 1434.24,401.04 C1424.63,401.04 1416.82,398.04 1410.24,391.43 C1403.63,385.43 1400.63,377.61 1400.63,368 L1400.63,272.49 C1400.63,255.67 1394.02,241.25 1382,229.84 C1370,217.84 1355.57,212.42 1339.35,212.42 C1323.73,212.42 1309.91,217.22 1298.5,227.42 C1287.08,237.04 1280.5,250.25 1278.67,265.27 L1278.67,367.41 C1278.67,377.02 1275.07,384.83 1268.46,391.41 C1261.85,397.99 1254.04,401.02 1244.46,401.02 C1235.65497,401.20599 1227.16851,397.7252 1221.03,391.41 C1214.42,384.8 1210.82,376.99 1210.82,367.41 L1210.82,271.89 C1210.82,255.07 1204.21,240.65 1192.82,229.24 C1180.82,217.82 1166.38,212.42 1149.56,212.42 C1133.94,212.42 1120.73,217.22 1109.31,227.42 C1097.9,237.04 1091.31,249.65 1088.89,264.67 L1088.89,367.41 C1088.89,377.02 1085.89,384.83 1079.27,391.41 C1072.65,397.99 1064.86,401.02 1055.27,401.02 C1045.68,401.02 1037.85,398.02 1031.84,391.41 C1025.24,384.8 1022.23,376.99 1022.23,367.41 L1022.23,258.07 C1025.84,226.23 1039.65,199.2 1064.28,177.57 C1088.28,155.94 1117.15,145.13 1149.59,145.13 C1187.44,145.13 1219.28,159.55 1244.51,187.18 C1270.34,159.55 1302.18,145.13 1339.43,145.13 C1374.27,145.13 1404.31,157.75 1429.54,181.78 C1454.77,205.81 1467.39,235.24 1467.39,270.69 L1467.28,368 Z M1448.06,271.28 C1448.06,241.28 1437.24,216.01 1416.22,195.58 C1394.59,174.58 1368.76,164.34 1339.32,164.34 C1296.67,164.34 1265.43,182.34 1244.4,219.01 C1223.4,182.37 1191.53,164.34 1149.48,164.34 C1123.05,164.34 1098.42,173.96 1075.59,193.78 C1052.76333,213.013333 1041.35,235.843333 1041.35,262.27 L1041.35,367.41 C1041.35,377.02 1045.55,381.83 1055.16,381.83 C1064.77,381.83 1070.16,377.02 1070.16,367.41 L1070.16,263.48 C1072.56,243.65 1080.98,226.83 1095.99,213.62 C1111.61,199.8 1128.99,193.19 1149.46,193.19 C1171.09,193.19 1190.31,201 1206.53,216.02 C1222.75,231.04 1230.53,249.66 1230.53,271.29 L1230.53,367.41 C1230.53,377.02 1235.34,381.83 1244.35,381.83 C1254.56,381.83 1259.35,377.02 1259.35,367.41 L1259.35,283.9 L1258.75,271.29 L1258.75,263.48 C1261.75,243.046667 1270.75,226.226667 1285.75,213.02 C1300.75,199.8 1318.75,193.19 1339.22,193.19 C1360.35985,192.967161 1380.71742,201.175686 1395.79,216 C1411.41,231.02 1419.22,249.643333 1419.22,271.87 L1419.22,368 C1419.22,377.61 1424.03,381.82 1434.22,381.82 C1443.22,381.82 1448.04,377.61 1448.04,368 L1448.06,271.28 Z" id="Shape" fill="#FFFFFF"></path>
            <path d="M1751.43,367.41 C1751.43,377.02 1748.43,384.83 1741.82,391.41 C1735.21,397.99 1727.4,401.02 1717.82,401.02 C1704.6,401.02 1694.39,395.02 1687.82,382.4 C1667.99,395.01 1646.37,401.62 1622.94,401.62 C1587.49,401.62 1557.46,389.01 1532.22,364.38 C1507.59,339.14 1494.98,309.11 1494.98,273.66 C1494.98,238.21 1507.59,207.58 1532.22,182.35 C1557.46,157.12 1587.49,144.5 1622.94,144.5 C1658.39,144.5 1689.02,157.12 1714.25,181.75 C1738.88,206.38 1751.5,237.02 1751.5,273.66 L1751.43,367.41 Z M1732.21,273.69 C1732.21,243.05 1721.39,217.22 1700.37,195.59 C1678.74,174.59 1652.91,163.75 1622.87,163.75 C1592.23,163.75 1566.4,174.57 1545.37,195.59 C1524.37,217.22 1513.53,243.05 1513.53,273.69 C1513.53,303.69 1524.34,329.56 1545.97,350.59 C1566.97,372.22 1592.83,382.431567 1622.87,382.431567 C1639.64287,382.523884 1656.16991,378.397282 1670.93,370.43 C1686.55,362.02 1697.93,351.21 1703.93,337.43 L1703.93,367.43 C1703.93,377.04 1708.74,381.85 1717.75,381.85 C1727.36333,381.85 1732.17,377.043333 1732.17,367.43 L1732.21,273.69 Z M1680.54,216 C1696.16,232.22 1703.97,250.84 1703.97,273.67 C1703.97,295.3 1696.16,314.52 1679.97,330.14 C1663.78,345.76 1645.13,353.57 1622.9,353.57 C1600.67,353.57 1581.45,345.76 1565.83,330.14 C1550.62258,315.315288 1542.15464,294.906234 1542.4,273.67 C1542.4,250.84 1550.21,232.22 1565.83,216 C1581.45,200.38 1600.67,192.57 1622.9,192.57 C1645.7,192.59 1664.32,200.4 1680.54,216 Z M1666.12,317 C1678.12,305 1684.12,290.58 1684.12,273.74 C1684.12,256.32 1678.12,241.9 1666.7,229.89 C1654.7,217.89 1640.27,211.89 1622.85,211.89 C1606.03,211.89 1591.01,217.89 1579.59,229.89 C1567.59,241.89 1561.59,256.32 1561.59,273.74 C1561.59,290.56 1567.59,304.98 1579.59,317 C1591.01,329 1606.03,335 1622.85,335 C1639.67,335 1654.11,329 1666.12,317 Z" id="Shape" fill="#FFFFFF"></path>
            <path d="M1917.83,154.74 C1924.14785,160.877486 1927.63217,169.363706 1927.45,178.17 C1927.58084,186.847874 1924.35674,195.241299 1918.45,201.6 C1911.85,208.21 1904.04,211.81 1894.45,211.81 C1877.63,211.81 1863.21,217.22 1851.2,229.24 C1839.2,240.646667 1833.2,255.063333 1833.2,272.49 L1833.2,368 C1833.2,377.61 1830.2,385.42 1823.58,391.43 C1817.58,398.04 1809.77,401.04 1800.15,401.04 C1790.53,401.04 1782.73,398.04 1776.15,391.43 C1769.54,385.43 1766.53,377.61 1766.53,368 L1766.53,272.49 C1766.53,237.05 1779.15,206.41 1803.78,181.78 C1829.01,157.15 1859.05,144.53 1894.49,144.53 C1903.42,144.53 1911.22,148.14 1917.83,154.74 Z M1908.83,178.17 C1908.83,168.563333 1904.02333,163.756667 1894.41,163.75 C1864.41,163.75 1838.54,174.57 1817.52,195.59 C1795.89,216.59 1785.68,241.85 1785.68,272.49 L1785.68,368 C1785.68,377.61 1790.48,381.82 1800.09,381.82 C1809.7,381.82 1814.51,377.61 1814.51,368 L1814.51,272.49 C1814.51,250.26 1822.32,231.64 1837.94,216.02 C1852.76538,200.813567 1873.17399,192.34582 1894.41,192.59 C1904.02333,192.59 1908.82667,187.783333 1908.82,178.17 L1908.83,178.17 Z" id="Shape" fill="#FFFFFF"></path>
            <path d="M256.47,373.07 C256.47,382.68 253.47,390.49 246.86,397.07 C240.25,403.65 232.44,406.68 222.86,406.68 C209.64,406.68 199.43,400.68 192.86,388.06 C173.04,400.68 151.41,407.28 127.98,407.28 C92.54,407.28 62.5,394.67 37.27,370.04 C12.57,344.84 0,314.8 0,279.35 C0,243.9 12.57,213.27 37.2,188 C62.43,162.77 92.47,150.15 127.91,150.15 C163.35,150.15 193.99,162.77 219.23,187.4 C243.86,212.03 256.47,242.67 256.47,279.31 L256.47,373.07 Z M237.25,279.35 C237.25,248.72 226.43,222.88 205.41,201.26 C183.78,180.26 157.95,169.42 127.91,169.42 C97.27,169.42 71.44,180.23 50.41,201.26 C29.41,222.88 18.57,248.72 18.57,279.35 C18.57,309.35 29.39,335.23 51.01,356.25 C72.01,377.88 97.87,388.091567 127.91,388.091567 C144.682867,388.183884 161.209908,384.057282 175.97,376.09 C191.59,367.68 202.97,356.86 208.97,343.04 L208.97,373.04 C208.97,382.65 213.78,387.46 222.79,387.46 C232.396667,387.46 237.203333,382.653333 237.21,373.04 L237.25,279.35 Z M185.58,221.68 C201.2,237.9 209,256.53 209,279.35 C209,300.98 201.19,320.21 185,335.83 C168.81,351.45 150.16,359.25 127.93,359.25 C105.7,359.25 86.48,351.44 70.86,335.83 C55.6520284,321.001539 47.1842488,300.589239 47.43,279.35 C47.43,256.53 55.24,237.9 70.86,221.68 C86.48,206.06 105.7,198.25 127.93,198.25 C150.74,198.25 169.36,206.06 185.58,221.68 Z M171.16,322.61 C183.16,310.61 189.16,296.19 189.16,279.35 C189.16,261.93 183.16,247.51 171.74,235.5 C159.74,223.5 145.3,217.5 127.88,217.5 C111.06,217.5 96.04,223.5 84.63,235.5 C72.63,247.5 66.63,261.93 66.63,279.35 C66.63,296.183333 72.63,310.603333 84.63,322.61 C96.04,334.61 111.06,340.61 127.88,340.61 C144.7,340.61 159.15,334.62 171.16,322.61 Z" id="Shape" fill="#FFFFFF"></path>
            <path d="M427.68,348.44 C434.29,355.05 437.89,362.86 437.89,372.44 C437.89,382.02 434.29,389.86 427.68,396.44 C420.47,403.05 412.68,406.65 403.05,406.65 C364.6,406.65 332.76,391.65 307.53,361 C283.53,332.76 271.53,299.116667 271.53,260.07 L271.53,48.06 C271.53,38.45 275.13,30.64 281.74,24.06 C288.046043,17.5743563 296.694134,13.8953141 305.74,13.85 C315.35,13.85 323.16,17.46 329.74,24.06 C337,30.64 340,38.45 340,48.06 L340,260.13 C339.861414,278.90546 345.757719,297.228875 356.82,312.4 C368.82,329.22 384.46,338.23 403.08,338.23 C412.357785,337.985777 421.301817,341.697914 427.68,348.44 Z M418.07,372.44 C418.07,362.83 413.26,357.44 403.07,357.44 C379.07,357.44 358.62,347.23 342.39,326.2 C327.98,307.58 320.77,285.35 320.77,260.12 L320.77,48.06 C320.77,38.45 315.36,33.65 305.77,33.65 C296.18,33.65 291.35,38.45 291.35,48.06 L291.35,260.13 C291.35,293.13 301.56,322.01 321.99,347.24 C343.616667,373.666667 370.65,386.883333 403.09,386.89 C413.26,386.89 418.07,382.08 418.07,372.47 L418.07,372.44 Z" id="Shape" fill="#FFFFFF"></path>
        </g>
    </g>
</svg>