<svg id="Capa_1" data-name="Capa 1" xmlns="http://www.w3.org/2000/svg" viewBox="0 0 2160.49 595.28"><defs><style>.cls-1,.cls-2{fill:#fff;stroke:#2e3475;stroke-miterlimit:10;}.cls-1{stroke-width:2px;}.cls-3{fill:#2e3475;}</style></defs><path class="cls-1" d="M673.56,319.24q3-17.21,9.72-29.55t25.06-22.07a107,107,0,0,1,32.55-10.29,239.59,239.59,0,0,1,37-2.8q32.16,0,51.62,7.1t28.05,18.14q8.6,11,10.47,21.7a137.73,137.73,0,0,1,1.88,23.75V430.71c0,6.23.43,10.79,1.3,13.65a39.53,39.53,0,0,0,5.43,10.29H800.73v-15l-.37.38a132.65,132.65,0,0,1-25.81,13.46q-14.22,5.63-37.78,5.62-34.42,0-52.18-18t-17.77-44.51a67.36,67.36,0,0,1,3.56-21.51q3.54-10.67,12.9-20a62.09,62.09,0,0,1,27.12-16.84q15.15-4.49,45.45-8.6,15.71-2.23,23.75-3.93t17.39-4.3q-.37-11.22-5.61-16.64t-20.57-5.43q-12.72,0-17.95,3.74t-7.11,14.22ZM773.8,372l-1.87.37q-12,3-17.95,4.87-9.74,3.73-12.72,8.6c-2,3.24-3,6.11-3,8.6q0,5.25,4.67,10.1t14.4,4.87q9.35,0,20.2-5.8a32.9,32.9,0,0,0,15.34-16.27q3.74-8.24,3.74-22.82Q781.65,369.74,773.8,372Z"/><path class="cls-1" d="M901,190.56h77.43V454.65H901Z"/><path class="cls-1" d="M1008.7,319.24q3-17.21,9.73-29.55t25.06-22.07A107,107,0,0,1,1076,257.33a239.69,239.69,0,0,1,37-2.8q32.18,0,51.63,7.1t28,18.14q8.6,11,10.47,21.7a137.79,137.79,0,0,1,1.87,23.75V430.71c0,6.23.44,10.79,1.31,13.65a39.23,39.23,0,0,0,5.43,10.29h-75.94v-15l-.37.38a132.65,132.65,0,0,1-25.81,13.46q-14.22,5.63-37.78,5.62-34.43,0-52.18-18T1002,396.67a67.63,67.63,0,0,1,3.55-21.51q3.56-10.67,12.91-20a62.09,62.09,0,0,1,27.12-16.84q15.15-4.49,45.45-8.6,15.7-2.23,23.75-3.93t17.39-4.3q-.37-11.22-5.61-16.64T1106,299.41q-12.72,0-18,3.74t-7.1,14.22ZM1109,372l-1.87.37q-12,3-17.95,4.87-9.74,3.73-12.72,8.6t-3,8.6q0,5.25,4.68,10.1t14.4,4.87q9.35,0,20.2-5.8A33,33,0,0,0,1128,387.32q3.73-8.24,3.74-22.82Q1116.8,369.74,1109,372Z"/><path class="cls-1" d="M1310.19,288.94l.37-.75a114.34,114.34,0,0,1,7.48-10.66A51.94,51.94,0,0,1,1328.7,268a64.45,64.45,0,0,1,17.59-8.23q10.65-3.36,25.24-3.36a115.52,115.52,0,0,1,14.22.93,80.23,80.23,0,0,1,15.34,3.56q16.46,5.24,24.31,13.09a74.57,74.57,0,0,1,13.46,18.7,56.16,56.16,0,0,1,7.3-12,57.93,57.93,0,0,1,12.72-11.6,69.15,69.15,0,0,1,20-9.16,96,96,0,0,1,27.3-3.55,89.79,89.79,0,0,1,30.3,5.05,62.16,62.16,0,0,1,23.57,14.4q11.6,11.22,14.77,24.31t3.56,31.8V454.65h-77.06V353.28a110.77,110.77,0,0,0-.56-11.6,29,29,0,0,0-3.18-10.29,20.16,20.16,0,0,0-8.23-8.22q-5.61-3.18-15-3.18-9.74,0-15.71,3.36a20.73,20.73,0,0,0-8.6,8.42,32.16,32.16,0,0,0-3.37,9.91,63.87,63.87,0,0,0-.75,9.73V455h-77V350.28a56.94,56.94,0,0,0-1.13-11.22q-2.24-10.1-9.72-14.59A30.75,30.75,0,0,0,1342,320q-13.1,0-20.94,7.85a21.24,21.24,0,0,0-5.8,9.17,53,53,0,0,0-1.68,11.4V455H1236.5V261.26h73.69Z"/><path class="cls-1" d="M1608.69,319.24q3-17.21,9.72-29.55t25.06-22.07A107,107,0,0,1,1676,257.33a239.59,239.59,0,0,1,37-2.8q32.16,0,51.62,7.1t28,18.14q8.61,11,10.48,21.7a138.79,138.79,0,0,1,1.87,23.75V430.71c0,6.23.43,10.79,1.31,13.65a39.15,39.15,0,0,0,5.42,10.29h-75.93v-15l-.38.38a132.37,132.37,0,0,1-25.81,13.46q-14.22,5.63-37.78,5.62-34.41,0-52.18-18T1602,396.67a67.36,67.36,0,0,1,3.56-21.51q3.54-10.67,12.9-20a62.09,62.09,0,0,1,27.12-16.84q15.15-4.49,45.45-8.6,15.7-2.23,23.75-3.93t17.4-4.3q-.39-11.22-5.62-16.64t-20.57-5.43q-12.72,0-18,3.74t-7.11,14.22ZM1708.93,372l-1.87.37q-12,3-18,4.87-9.73,3.73-12.72,8.6c-2,3.24-3,6.11-3,8.6q0,5.25,4.67,10.1t14.41,4.87q9.35,0,20.19-5.8A32.9,32.9,0,0,0,1728,387.32q3.73-8.24,3.74-22.82Q1716.78,369.74,1708.93,372Z"/><path class="cls-1" d="M1910.17,277.72q15-13.47,27.87-17.21t36.84-3.74v65.09q-10.47-.75-15.71-.75-15.7,0-25.43,4.3t-14,11a38.92,38.92,0,0,0-5.61,13.28,69,69,0,0,0-1.31,13.66v91.27h-76.68V259.76h74.06Z"/><path class="cls-2" d="M502.36,465.36c-20.08,1.57-37.74-5.43-54.68-15.3-23.68-13.8-44.29-31.78-66.25-47.92-7.26-5.33-14.44-10.76-22.08-15.55-2.59-1.62-3.9-1.43-5.5,1.39-9.71,17.11-19.64,34.08-29.45,51.13a5.92,5.92,0,0,1-5.78,3.17c-14.7-.08-29.39,0-44.09-.06-4.79,0-5.19-.83-2.76-5q20.36-35.26,40.79-70.48c1.83-3.14,1.34-4.7-2.12-5.71-13.22-3.88-26.59-6.64-40.48-6a101.51,101.51,0,0,0-32.78,6.82c-1.29.51-3,2.11-4,.46-.82-1.39,1.32-2.13,2.34-2.92,23-17.7,49.13-24.16,77.73-21.23,24.42,2.51,45.95,12.58,66.48,25.49,19.13,12,37,25.93,56,38.06s38.52,23,60.73,28.27a105.86,105.86,0,0,0,57-2.14,129.82,129.82,0,0,0,27.9-12.68c1.11-.66,2.45-2.12,3.68-1s-.11,2.61-.78,3.69c-15.91,25.86-37.92,43-68.6,47.48C511.3,465.9,506.79,465.36,502.36,465.36Z"/><path class="cls-3" d="M501.87,385.75c-14,.09-27.42-3.33-40.68-7.47a14,14,0,0,1-8.3-7q-19.65-34.47-39.63-68.77c-1.49-2.56-2.51-7-5-7s-3.41,4.51-4.91,7.08C395,316.79,386.68,331,378.52,345.34c-1.74,3.05-3.68,3.42-6.42,1.69a172.19,172.19,0,0,0-34.22-16.87c-4-1.44-2.16-3.66-.91-5.8q16.54-28.59,33.11-57.18,17.24-29.88,34.39-59.79c.48-.84,1-1.65,1.55-2.46,1.6-2.52,3.07-2.46,4.57.14q15.84,27.56,31.74,55.08,14.75,25.56,29.53,51.09,20.29,35.07,40.59,70.14c1.88,3.25,1.39,4.19-2.26,4.34C507.42,385.84,504.64,385.75,501.87,385.75Z"/><path class="cls-2" d="M520,383.53c1.29-1.79,2.85-2.08,4.21-2.63,28.75-11.55,48.56-40.4,48.28-71.33-.31-34.52-16.9-58.77-47.91-73.35A53.34,53.34,0,0,0,511.13,232c-1-.18-2.71.05-2.64-1.36.09-1.7,1.87-1.26,3-1.31,19.45-.83,37,4.54,52.19,16.75,15.67,12.58,25.61,28.89,28.34,48.73,5.3,38.43-14.62,71.28-49.46,84.82C536,382.13,529.26,384.37,522,384A14.93,14.93,0,0,1,520,383.53Z"/><path class="cls-3" d="M442.45,388.64c3.45,1.36,6.49,2.51,9.49,3.74a129.38,129.38,0,0,0,49.82,9.84c33-.07,60.06-13.15,81.52-38.2a210.2,210.2,0,0,0,15.22-20.74c.72-1.08,1.07-3,2.86-2.33,1.53.61,1.15,2.43,1,3.74-2,16.54-7.12,31.8-18.13,44.75-14.46,17-33.58,24.34-54.94,28.1-16.13,2.84-31.48.58-46.57-4.54a127.2,127.2,0,0,1-37.79-20.55,14.26,14.26,0,0,1-2-2.08A6.44,6.44,0,0,1,442.45,388.64Z"/><path class="cls-3" d="M266.63,365.64c8.84-.92,18.31,1.66,27.75,4.44,1,.3,2.57.52,2.44,1.81-.17,1.71-1.9,1.29-3,1.27a134.6,134.6,0,0,0-28.88,2.17,141.31,141.31,0,0,0-47.07,18.8c-1.41.87-3.1,3.14-4.57,1.54s.86-3.19,1.8-4.58C227.12,373.24,243.92,364.71,266.63,365.64Z"/></svg>