<?xml version="1.0" encoding="UTF-8"?>
<svg width="511px" height="431px" viewBox="0 0 511 431" version="1.1" xmlns="http://www.w3.org/2000/svg" xmlns:xlink="http://www.w3.org/1999/xlink">
    <title>de-ida-y-vuelta</title>
    <g id="Page-1" stroke="none" stroke-width="1" fill="none" fill-rule="evenodd">
        <g id="de-ida-y-vuelta" fill="#1769AA" fill-rule="nonzero">
            <path d="M463.498,111 L487.5,111 C492.187,111 496,114.813 496,119.5 C496,124.187 492.187,128 487.5,128 L143.503,128 C139.361,128 136.003,131.358 136.003,135.5 C136.003,139.642 139.361,143 143.503,143 L487.5,143 C500.458,143 511,132.458 511,119.5 C511,106.542 500.458,96 487.5,96 L463.498,96 C459.356,96 455.998,99.358 455.998,103.5 C455.998,107.642 459.356,111 463.498,111 Z" id="Path"></path>
            <path d="M0.059,121.178 C0.456,126.712 2.803,131.931 6.674,135.902 C6.78,136.016 6.89,136.127 7.004,136.234 L102.882,232.112 C107.318,236.554 113.22,239 119.501,239 C125.782,239 131.684,236.554 136.117,232.116 C140.556,227.677 143.001,221.776 143.001,215.5 C143.001,209.224 140.556,203.324 136.117,198.884 L80.235,143 L111.496,143 C115.638,143 118.996,139.642 118.996,135.5 C118.996,131.358 115.638,128 111.496,128 L62.129,128 C59.096,128 56.361,129.827 55.2,132.63 C54.039,135.432 54.681,138.658 56.825,140.803 L125.509,209.491 C127.115,211.097 128,213.231 128,215.5 C128,217.769 127.115,219.903 125.506,221.513 C123.904,223.117 121.771,224 119.5,224 C117.229,224 115.096,223.117 113.491,221.509 L17.491,125.509 C17.485,125.503 17.479,125.497 17.473,125.491 C15.668,123.676 15.143,121.621 15.026,120.188 C15.025,120.159 15.023,120.131 15.021,120.102 C14.981,119.533 14.998,118.956 15.07,118.399 C15.286,116.743 15.975,115.205 17.089,113.919 C17.223,113.763 17.359,113.613 17.573,113.404 L113.494,17.487 C115.096,15.883 117.229,15 119.5,15 C121.771,15 123.904,15.883 125.509,17.491 C128.822,20.804 128.822,26.196 125.509,29.51 L56.825,98.198 C54.68,100.343 54.039,103.569 55.2,106.371 C56.361,109.174 59.096,111.001 62.129,111.001 L431.5,111.001 C435.642,111.001 439,107.643 439,103.501 C439,99.359 435.642,96.001 431.5,96.001 L80.235,96.001 L136.116,40.117 C145.278,30.955 145.278,16.048 136.119,6.889 C131.683,2.446 125.781,0 119.5,0 C113.219,0 107.317,2.446 102.884,6.884 L7.036,102.73 C6.582,103.172 6.145,103.639 5.728,104.126 C2.707,107.61 0.794,111.875 0.195,116.473 C0.000629375371,117.978 -0.048,119.506 0.049,121.016 C0.051,121.07 0.055,121.124 0.059,121.178 Z" id="Path"></path>
            <path d="M510.941,309.822 C510.544,304.288 508.197,299.069 504.326,295.098 C504.22,294.984 504.11,294.873 503.996,294.766 L408.118,198.888 C403.683,194.446 397.781,192 391.5,192 C385.219,192 379.317,194.446 374.884,198.884 C370.445,203.323 368,209.224 368,215.5 C368,221.776 370.445,227.676 374.884,232.116 L430.765,288 L399.504,288 C395.362,288 392.004,291.358 392.004,295.5 C392.004,299.642 395.362,303 399.504,303 L448.871,303 C451.904,303 454.639,301.173 455.8,298.37 C456.961,295.568 456.319,292.342 454.175,290.197 L385.491,221.509 C383.885,219.903 383,217.769 383,215.5 C383,213.231 383.885,211.097 385.494,209.487 C387.096,207.883 389.229,207 391.5,207 C393.771,207 395.904,207.883 397.509,209.491 L493.509,305.491 C493.515,305.497 493.521,305.503 493.527,305.509 C495.332,307.324 495.857,309.379 495.974,310.812 C495.975,310.841 495.977,310.869 495.979,310.898 C496.019,311.467 496.002,312.044 495.93,312.601 C495.714,314.257 495.025,315.795 493.911,317.081 C493.777,317.237 493.641,317.387 493.427,317.596 L397.506,413.513 C395.904,415.117 393.771,416 391.5,416 C389.229,416 387.096,415.117 385.491,413.509 C383.885,411.903 383,409.769 383,407.5 C383,405.231 383.885,403.097 385.491,401.491 L454.175,332.803 C456.32,330.658 456.961,327.432 455.8,324.63 C454.639,321.827 451.904,320 448.871,320 L95.5,320 C91.358,320 88,323.358 88,327.5 C88,331.642 91.358,335 95.5,335 L430.765,335 L374.884,390.884 C370.445,395.323 368,401.224 368,407.5 C368,413.776 370.445,419.676 374.881,424.112 C379.317,428.554 385.219,431 391.5,431 C397.781,431 403.683,428.554 408.116,424.116 L503.965,328.27 C504.419,327.828 504.856,327.361 505.273,326.874 C508.294,323.39 510.207,319.125 510.806,314.527 C511.000371,313.022 511.049,311.494 510.952,309.984 C510.949,309.93 510.945,309.876 510.941,309.822 Z" id="Path"></path>
            <path d="M63.5,320 L23.5,320 C18.813,320 15,316.187 15,311.5 C15,306.813 18.813,303 23.5,303 L367.497,303 C371.639,303 374.997,299.642 374.997,295.5 C374.997,291.358 371.639,288 367.497,288 L23.5,288 C10.542,288 0,298.542 0,311.5 C0,324.458 10.542,335 23.5,335 L63.5,335 C67.642,335 71,331.642 71,327.5 C71,323.358 67.642,320 63.5,320 Z" id="Path"></path>
        </g>
    </g>
</svg>