<svg width="442" height="513" viewBox="0 0 442 513" fill="none" xmlns="http://www.w3.org/2000/svg">
<path d="M198.548 504.5C230.698 504.5 256.76 478.48 256.76 446.383C256.76 414.286 230.698 388.266 198.548 388.266C166.398 388.266 140.336 414.286 140.336 446.383C140.336 478.48 166.398 504.5 198.548 504.5Z" fill="#939393"/>
<path d="M198.549 388.265C192.663 388.265 186.985 389.145 181.63 390.767C205.526 398.004 222.923 420.161 222.923 446.383C222.923 472.604 205.526 494.762 181.63 501.999C186.985 503.621 192.663 504.501 198.549 504.501C230.698 504.501 256.761 478.481 256.761 446.384C256.761 414.287 230.698 388.265 198.549 388.265Z" fill="#939393"/>
<path d="M205.35 107.191C186.656 110.941 168.456 98.851 164.699 80.187C160.943 61.523 173.052 43.352 191.747 39.602C210.442 35.852 228.641 47.942 232.398 66.606C236.155 85.27 224.044 103.44 205.35 107.191Z" fill="#939393"/>
<path d="M232.398 66.606C228.642 47.941 210.442 35.852 191.747 39.602C190.007 39.951 188.325 40.426 186.707 41.013C197.621 45.002 206.261 54.396 208.719 66.606C212.126 83.533 202.482 100.053 186.711 105.779C192.481 107.887 198.885 108.487 205.35 107.19C224.044 103.44 236.154 85.27 232.398 66.606Z" fill="#939393"/>
<path d="M342.73 436.658H54.367C28.566 436.658 7.65002 415.776 7.65002 390.017C7.65002 375.756 14.114 362.261 25.232 353.308L34.497 345.848C55.925 328.594 68.382 302.586 68.382 275.102V226.084C68.382 153.765 127.104 95.138 199.54 95.138C271.977 95.138 330.698 153.764 330.698 226.084V276.008C330.698 302.974 342.692 328.547 363.437 345.815L372.459 353.325C383.223 362.285 389.446 375.555 389.446 389.547V390.017C389.447 415.776 368.531 436.658 342.73 436.658Z" fill="#C0C1C6"/>
<path d="M372.459 353.325L363.437 345.815C342.692 328.546 330.698 302.973 330.698 276.007V226.083C330.698 153.764 271.977 95.137 199.54 95.137C186.707 95.137 174.308 96.985 162.586 100.415C217.029 116.347 256.79 166.575 256.79 226.082V276.006C256.79 302.972 268.784 328.545 289.529 345.814L298.551 353.324C309.315 362.284 315.538 375.554 315.538 389.546V390.016C315.538 415.775 294.622 436.657 268.821 436.657H342.729C368.53 436.657 389.446 415.775 389.446 390.016V389.546C389.447 375.555 383.224 362.285 372.459 353.325Z" fill="#939393"/>
<path d="M321.781 232.272C383.951 232.272 434.35 181.955 434.35 119.886C434.35 57.8169 383.951 7.5 321.781 7.5C259.611 7.5 209.212 57.8169 209.212 119.886C209.212 181.955 259.611 232.272 321.781 232.272Z" fill="#C0C1C6"/>
<path d="M351.988 11.599C380.695 31.966 399.424 65.436 399.424 103.273C399.424 165.342 349.025 215.659 286.855 215.659C276.39 215.659 266.261 214.228 256.648 211.561C275.033 224.604 297.509 232.273 321.78 232.273C383.95 232.273 434.349 181.956 434.349 119.886C434.35 68.265 399.488 24.778 351.988 11.599Z" fill="#939393"/>
<path d="M426.85 119.886C426.85 124.029 430.207 127.386 434.35 127.386C438.493 127.386 441.85 124.029 441.85 119.886C441.85 53.78 387.986 0 321.78 0C284.302 0 250.784 17.238 228.749 44.186C218.985 34.079 204.61 29.38 190.274 32.248C179.267 34.459 169.782 40.815 163.563 50.146C157.343 59.479 155.135 70.673 157.346 81.671C158.148 85.643 159.508 89.433 161.364 92.954C102.502 109.745 60.878 164.001 60.878 226.081C60.878 230.224 64.235 233.581 68.378 233.581C72.521 233.581 75.878 230.224 75.878 226.081C75.878 167.293 117.738 116.367 175.41 104.98C175.418 104.979 175.426 104.977 175.435 104.975H175.436C183.34 103.423 191.449 102.636 199.536 102.636C200.678 102.636 201.817 102.656 202.953 102.687C202.141 108.306 201.712 114.046 201.712 119.886C201.712 185.991 255.574 239.773 321.78 239.773C322.253 239.773 322.721 239.75 323.193 239.745V276.011C323.193 305.283 336.112 332.826 358.636 351.577L367.658 359.089C376.741 366.649 381.95 377.752 381.95 389.55V390.021C381.95 411.605 364.356 429.165 342.731 429.165H54.37C32.744 429.165 15.15 411.605 15.15 390.021C15.15 384.125 16.493 378.212 19.034 372.917C21.58 367.604 25.348 362.847 29.939 359.154L39.197 351.688C62.509 332.92 75.878 305.005 75.878 275.101V258.661C75.878 254.518 72.521 251.161 68.378 251.161C64.235 251.161 60.878 254.518 60.878 258.661V275.101C60.878 300.442 49.547 324.098 29.786 340.007L20.53 347.471C14.211 352.554 9.015 359.112 5.509 366.43C2.003 373.735 0.151001 381.893 0.151001 390.021C0.151001 419.875 24.474 444.165 54.371 444.165H132.886C132.861 444.905 132.839 445.644 132.839 446.383C132.839 482.566 162.318 512.002 198.552 512.002C234.786 512.002 264.265 482.565 264.265 446.383C264.265 445.645 264.243 444.905 264.218 444.165H342.734C372.63 444.165 396.953 419.876 396.953 390.021V389.55C396.953 373.283 389.774 357.979 377.258 347.561L368.237 340.05C349.145 324.156 338.196 300.816 338.196 276.011V238.65C358.582 235.89 377.762 227.998 394.384 215.38C414.726 199.94 429.866 178.022 437.018 153.664C438.185 149.69 435.909 145.522 431.934 144.355C427.96 143.189 423.792 145.465 422.625 149.439C416.371 170.741 403.12 189.916 385.314 203.431C366.922 217.392 344.953 224.771 321.782 224.771C263.847 224.771 216.714 177.719 216.714 119.884C216.712 62.052 263.846 15 321.78 15C379.716 15 426.85 62.052 426.85 119.886ZM249.264 446.381C249.264 474.292 226.514 497 198.551 497C170.588 497 147.838 474.292 147.838 446.381C147.838 445.643 147.856 444.903 147.889 444.163H249.213C249.246 444.903 249.264 445.643 249.264 446.381ZM199.536 87.636C191.948 87.636 184.344 88.264 176.864 89.488C174.494 86.32 172.847 82.654 172.051 78.71C170.632 71.649 172.051 64.459 176.046 58.464C180.044 52.464 186.147 48.376 193.224 46.955C203.376 44.918 213.57 48.784 219.788 56.7C213.83 66.254 209.179 76.699 206.089 87.788C203.919 87.687 201.73 87.636 199.536 87.636Z" fill="black"/>
</svg>
