<?xml version="1.0" encoding="UTF-8"?>
<svg width="513px" height="513px" viewBox="0 0 513 513" version="1.1" xmlns="http://www.w3.org/2000/svg" xmlns:xlink="http://www.w3.org/1999/xlink">
    <title>icon-phone</title>
    <g id="Page-1" stroke="none" stroke-width="1" fill="none" fill-rule="evenodd">
        <g id="icon-phone" fill="#FFFFFF" fill-rule="nonzero">
            <path d="M367.988,512.021 C351.46,512.021 335.072,509.099 319.047,503.277 C248.449,477.631 182.919,435.861 129.539,382.482 C76.159,329.103 34.389,263.572 8.744,192.974 C0.503,170.286 -1.929,146.866 1.518,123.362 C4.747,101.346 13.275,79.973 26.181,61.553 C39.144,43.052 56.426,27.664 76.158,17.053 C97.2,5.738 120.167,-1.13686838e-13 144.423,-1.13686838e-13 C151.967,-1.13686838e-13 158.487,5.271 160.068,12.647 L185.182,129.846 C186.319,135.153 184.688,140.675 180.851,144.513 L137.938,187.425 C178.42,267.911 244.108,333.599 324.594,374.081 L367.506,331.168 C371.343,327.331 376.866,325.702 382.173,326.837 L499.372,351.951 C506.749,353.532 512.019,360.052 512.019,367.596 C512.019,391.852 506.281,414.82 494.965,435.862 C484.354,455.594 468.966,472.876 450.465,485.839 C432.046,498.745 410.673,507.273 388.656,510.502 C381.757,511.515 374.859,512.021 367.988,512.021 L367.988,512.021 Z M131.639,32.7 C99.644,36.232 71.246,53.002 52.388,79.917 C31.182,110.182 26.237,147.407 38.821,182.049 C88.125,317.775 194.246,423.896 329.972,473.2 C364.613,485.784 401.839,480.84 432.104,459.633 C459.019,440.775 475.789,412.377 479.321,380.382 L383.98,359.952 L339.164,404.768 C334.395,409.537 327.149,410.804 321.047,407.936 C225.857,363.216 148.805,286.164 104.085,190.974 C101.218,184.871 102.484,177.625 107.253,172.857 L152.069,128.041 L131.639,32.7 Z" id="Shape"></path>
            <path d="M496.02,272 C487.184,272 480.02,264.836 480.02,256 C480.02,132.486 379.534,32 256.02,32 C247.184,32 240.02,24.836 240.02,16 C240.02,7.164 247.184,0 256.02,0 C324.401,0 388.688,26.628 437.04,74.98 C485.392,123.332 512.02,187.619 512.02,256 C512.02,264.836 504.857,272 496.02,272 Z" id="Path"></path>
            <path d="M432.02,272 C423.184,272 416.02,264.836 416.02,256 C416.02,167.776 344.244,96 256.02,96 C247.184,96 240.02,88.836 240.02,80 C240.02,71.164 247.184,64 256.02,64 C361.889,64 448.02,150.131 448.02,256 C448.02,264.836 440.857,272 432.02,272 Z" id="Path"></path>
            <path d="M368.02,272 C359.184,272 352.02,264.836 352.02,256 C352.02,203.065 308.955,160 256.02,160 C247.184,160 240.02,152.836 240.02,144 C240.02,135.164 247.184,128 256.02,128 C326.6,128 384.02,185.42 384.02,256 C384.02,264.836 376.857,272 368.02,272 Z" id="Path"></path>
        </g>
    </g>
</svg>