<svg width="428" height="498" viewBox="0 0 428 498" fill="none" xmlns="http://www.w3.org/2000/svg">
<path d="M191.548 497.5C223.698 497.5 249.76 471.48 249.76 439.383C249.76 407.286 223.698 381.266 191.548 381.266C159.398 381.266 133.336 407.286 133.336 439.383C133.336 471.48 159.398 497.5 191.548 497.5Z" fill="#939393"/>
<path d="M191.549 381.265C185.663 381.265 179.985 382.145 174.63 383.767C198.526 391.004 215.923 413.161 215.923 439.383C215.923 465.604 198.526 487.762 174.63 494.999C179.985 496.621 185.663 497.501 191.549 497.501C223.698 497.501 249.761 471.481 249.761 439.384C249.761 407.287 223.698 381.265 191.549 381.265Z" fill="#939393"/>
<path d="M198.35 100.191C179.656 103.941 161.456 91.851 157.699 73.187C153.943 54.523 166.052 36.352 184.747 32.602C203.442 28.852 221.641 40.942 225.398 59.606C229.155 78.27 217.044 96.44 198.35 100.191Z" fill="#939393"/>
<path d="M225.398 59.606C221.642 40.941 203.442 28.852 184.747 32.602C183.007 32.951 181.325 33.426 179.707 34.013C190.621 38.002 199.261 47.396 201.719 59.606C205.126 76.533 195.482 93.053 179.711 98.779C185.481 100.887 191.885 101.487 198.35 100.19C217.044 96.44 229.154 78.27 225.398 59.606Z" fill="#939393"/>
<path d="M335.73 429.658H47.367C21.566 429.658 0.650024 408.776 0.650024 383.017C0.650024 368.756 7.11402 355.261 18.232 346.308L27.497 338.848C48.925 321.594 61.382 295.586 61.382 268.102V219.084C61.382 146.765 120.104 88.138 192.54 88.138C264.977 88.138 323.698 146.764 323.698 219.084V269.008C323.698 295.974 335.692 321.547 356.437 338.815L365.459 346.325C376.223 355.285 382.446 368.555 382.446 382.547V383.017C382.447 408.776 361.531 429.658 335.73 429.658Z" fill="#C0C1C6"/>
<path d="M365.459 346.325L356.437 338.815C335.692 321.546 323.698 295.973 323.698 269.007V219.083C323.698 146.764 264.977 88.137 192.54 88.137C179.707 88.137 167.308 89.985 155.586 93.415C210.029 109.347 249.79 159.575 249.79 219.082V269.006C249.79 295.972 261.784 321.545 282.529 338.814L291.551 346.324C302.315 355.284 308.538 368.554 308.538 382.546V383.016C308.538 408.775 287.622 429.657 261.821 429.657H335.729C361.53 429.657 382.446 408.775 382.446 383.016V382.546C382.447 368.555 376.224 355.285 365.459 346.325Z" fill="#939393"/>
<path d="M314.781 225.272C376.951 225.272 427.35 174.955 427.35 112.886C427.35 50.8169 376.951 0.5 314.781 0.5C252.611 0.5 202.212 50.8169 202.212 112.886C202.212 174.955 252.611 225.272 314.781 225.272Z" fill="#C0C1C6"/>
<path d="M344.988 4.599C373.695 24.966 392.424 58.436 392.424 96.273C392.424 158.342 342.025 208.659 279.855 208.659C269.39 208.659 259.261 207.228 249.648 204.561C268.033 217.604 290.509 225.273 314.78 225.273C376.95 225.273 427.349 174.956 427.349 112.886C427.35 61.265 392.488 17.778 344.988 4.599Z" fill="#939393"/>
</svg>
