<?xml version="1.0" encoding="UTF-8"?>
<svg width="273px" height="369px" viewBox="0 0 273 369" version="1.1" xmlns="http://www.w3.org/2000/svg" xmlns:xlink="http://www.w3.org/1999/xlink">
    <title>icon-pin</title>
    <g id="Page-1" stroke="none" stroke-width="1" fill="none" fill-rule="evenodd">
        <g id="icon-pin" fill="#FFFFFF" fill-rule="nonzero">
            <path d="M136.08,0 C61.088,0 0.08,61.008 0.08,136 C0.08,160.688 11.152,187.24 11.616,188.36 C15.192,196.848 22.248,210.032 27.336,217.76 L120.584,359.048 C124.4,364.84 130.048,368.16 136.08,368.16 C142.112,368.16 147.76,364.84 151.576,359.056 L244.832,217.76 C249.928,210.032 256.976,196.848 260.552,188.36 C261.016,187.248 272.08,160.696 272.08,136 C272.08,61.008 211.072,0 136.08,0 Z M245.8,182.152 C242.608,189.76 236.04,202.024 231.472,208.952 L138.216,350.248 C136.376,353.04 135.792,353.04 133.952,350.248 L40.696,208.952 C36.128,202.024 29.56,189.752 26.368,182.144 C26.232,181.816 16.08,157.376 16.08,136 C16.08,69.832 69.912,16 136.08,16 C202.248,16 256.08,69.832 256.08,136 C256.08,157.408 245.904,181.912 245.8,182.152 Z" id="Shape"></path>
            <path d="M136.08,64.008 C96.376,64.008 64.08,96.312 64.08,136.008 C64.08,175.704 96.376,208.008 136.08,208.008 C175.784,208.008 208.08,175.704 208.08,136.008 C208.08,96.312 175.784,64.008 136.08,64.008 Z M136.08,192.008 C105.208,192.008 80.08,166.888 80.08,136.008 C80.08,105.128 105.208,80.008 136.08,80.008 C166.952,80.008 192.08,105.128 192.08,136.008 C192.08,166.888 166.952,192.008 136.08,192.008 Z" id="Shape"></path>
        </g>
    </g>
</svg>