<?xml version="1.0" encoding="UTF-8"?>
<svg width="33px" height="34px" viewBox="0 0 33 34" version="1.1" xmlns="http://www.w3.org/2000/svg" xmlns:xlink="http://www.w3.org/1999/xlink">
    <title>003-deck-chair</title>
    <g id="Symbols" stroke="none" stroke-width="1" fill="none" fill-rule="evenodd" fill-opacity="0.5">
        <g id="Search" transform="translate(-20.000000, -33.000000)" fill="#000000" fill-rule="nonzero">
            <g id="003-deck-chair" transform="translate(20.000000, 33.000000)">
                <path d="M19.4110543,24.2819671 L19.4110543,13.6122718 L30.1449004,13.6122718 C30.7006904,13.6122718 31.1512802,13.16629 31.1512802,12.6161839 C31.1512131,5.65963871 25.4331642,0 18.4046745,0 C11.3761848,0 5.65806873,5.65963871 5.65806873,12.6161839 C5.65806873,13.16629 6.10865853,13.6122718 6.66444856,13.6122718 L17.3982946,13.6122718 L17.3982946,24.2819671 L10.9298218,24.2819671 L7.97549313,21.3579178 C5.85786867,19.2619496 2.41235956,19.2619496 0.294802201,21.3579178 C0.106072435,21.5447175 0,21.7980559 0,22.0622184 C0,22.3263809 0.106072435,22.5797857 0.294802201,22.7665189 L7.56623199,29.9635862 C7.55100211,30.0013047 7.53718116,30.0398865 7.52637935,30.0801948 L6.81392952,32.7492456 C6.67196287,33.2810901 6.99252839,33.8262159 7.52986813,33.9667307 C7.61601425,33.9892423 7.70249582,34 7.78756846,34 C8.23326055,34 8.6407102,33.7046931 8.75993266,33.2580473 L9.45513986,30.6534766 L28.8950437,30.6534766 L28.8950437,33.0037129 C28.8950437,33.553819 29.3456335,34 29.9014236,34 C30.4572136,34 30.9078034,33.553819 30.9078034,33.0037129 L30.9078034,30.653543 L31.9936202,30.653543 C32.5494102,30.653543 33,30.2075613 33,29.6574551 C33,26.6934295 30.5636886,24.2819671 27.5689706,24.2819671 L19.4110543,24.2819671 Z M29.0916904,11.620096 L24.8645596,11.620096 C24.7543274,8.74644875 24.1685473,6.06318713 23.1867231,3.97864075 C22.9903449,3.56167835 22.7808166,3.17566108 22.5598827,2.82072175 C26.1264257,4.30834585 28.7171829,7.65042002 29.0916904,11.620096 L29.0916904,11.620096 Z M14.2494663,2.82072175 C14.0285324,3.17566108 13.8190041,3.56167835 13.6226259,3.97864075 C12.6408017,6.06325354 12.0550886,8.74644875 11.9447894,11.620096 L7.71759152,11.620096 C8.0921661,7.65042002 10.6828562,4.30834585 14.2494663,2.82072175 Z M18.4046074,1.99217583 C18.4046074,1.99217583 18.4046745,1.99217583 18.4046074,1.99217583 C20.4032107,1.99217583 22.6178501,5.89757091 22.8509948,11.620096 L13.9582871,11.620096 C14.1914317,5.89757091 16.4060041,1.99217583 18.4046074,1.99217583 L18.4046074,1.99217583 Z M6.55227076,22.7665854 L9.80133452,25.982422 C9.99006429,26.1692217 10.2460202,26.2742093 10.5129122,26.2742093 L27.5689706,26.2742093 C29.1037669,26.2742093 30.4054857,27.2803909 30.8361492,28.6614336 L9.09700282,28.6614336 L2.53647974,22.1680693 C3.82773217,21.4929209 5.46705783,21.6924706 6.55227076,22.7665854 Z" id="Shape"></path>
            </g>
        </g>
    </g>
</svg>