<?xml version="1.0" encoding="UTF-8"?>
<svg width="638px" height="640px" viewBox="0 0 638 640" version="1.1" xmlns="http://www.w3.org/2000/svg" xmlns:xlink="http://www.w3.org/1999/xlink">
    <title>icon-whatsapp</title>
    <g id="Page-1" stroke="none" stroke-width="1" fill="none" fill-rule="evenodd">
        <g id="icon-whatsapp" fill="#FFFFFF" fill-rule="nonzero">
            <path d="M544.386719,93.007812 C484.511719,33.0625 404.882812,0.0351562 320.050781,0 C145.246094,0 2.980469,142.261719 2.910156,317.113281 C2.886719,373.007812 17.488281,427.570312 45.242188,475.664062 L0.25,640 L168.371094,595.898438 C214.695312,621.167969 266.847656,634.484375 319.921875,634.5 L320.054688,634.5 C494.839844,634.5 637.121094,492.226562 637.187528,317.367188 C637.222656,232.625 604.265625,152.949219 544.386719,93.007812 Z M320.050781,580.941406 L319.941406,580.941406 C272.644531,580.921875 226.257812,568.210938 185.78125,544.199219 L176.160156,538.484375 L76.394531,564.65625 L103.023438,467.386719 L96.753906,457.414062 C70.367188,415.445312 56.433594,366.9375 56.4570015,317.132812 C56.511719,171.800781 174.761719,53.5625 320.15625,53.5625 C390.5625,53.585938 456.746094,81.039062 506.511719,130.863281 C556.277344,180.6875 583.667969,246.914062 583.644546,317.347656 C583.582031,462.691406 465.339844,580.941406 320.050781,580.941406 L320.050781,580.941406 Z M464.636719,383.523438 C456.714844,379.554688 417.753906,360.390625 410.488281,357.742188 C403.230469,355.097656 397.941406,353.78125 392.664062,361.710938 C387.378906,369.640625 372.195312,387.492188 367.570312,392.777344 C362.945312,398.066406 358.328125,398.730469 350.402344,394.761719 C342.476562,390.796875 316.945312,382.425781 286.675781,355.429688 C263.121094,334.417969 247.21875,308.46875 242.59375,300.539062 C237.976562,292.601562 242.554688,288.726562 246.070312,284.367188 C254.648438,273.714844 263.238281,262.546875 265.878906,257.261719 C268.523438,251.972656 267.199219,247.34375 265.214844,243.378906 C263.238281,239.414062 247.390625,200.410156 240.789062,184.539062 C234.351562,169.09375 227.824219,171.179688 222.957031,170.9375 C218.339844,170.707031 213.054688,170.660156 207.769531,170.660156 C202.488281,170.660156 193.902344,172.640625 186.636719,180.578125 C179.375,188.511719 158.90625,207.679688 158.90625,246.683594 C158.90625,285.6875 187.300781,323.367188 191.261719,328.65625 C195.222656,333.945312 247.140625,413.984375 326.628906,448.304688 C345.535156,456.476562 360.292969,461.347656 371.804688,465 C390.789062,471.03125 408.058594,470.179688 421.714844,468.140625 C436.941406,465.863281 468.59375,448.96875 475.203125,430.460938 C481.804688,411.949219 481.804688,396.085938 479.820312,392.777344 C477.84375,389.472656 472.558594,387.492188 464.636719,383.523438 L464.636719,383.523438 Z" id="Shape"></path>
        </g>
    </g>
</svg>