<?xml version="1.0" encoding="UTF-8"?>
<svg width="512px" height="512px" viewBox="0 0 512 512" version="1.1" xmlns="http://www.w3.org/2000/svg" xmlns:xlink="http://www.w3.org/1999/xlink">
    <title>icon-error</title>
    <g id="Page-1" stroke="none" stroke-width="1" fill="none" fill-rule="evenodd">
        <g id="icon-error" fill="#FFFFFF" fill-rule="nonzero">
            <path d="M256,0 C114.508,0 0,114.497 0,256 C0,397.493 114.497,512 256,512 C397.492,512 512,397.503 512,256 C512,114.507 397.503,0 256,0 Z M256,472 C136.616,472 40,375.393 40,256 C40,136.615 136.607,40 256,40 C375.384,40 472,136.607 472,256 C472,375.385 375.393,472 256,472 Z" id="Shape"></path>
            <path d="M343.586,315.302 L284.284,256 L343.586,196.698 C351.396,188.888 351.397,176.225 343.587,168.414 C335.775,160.603 323.112,160.604 315.303,168.414 L256,227.716 L196.697,168.414 C188.888,160.603 176.223,160.603 168.413,168.414 C160.603,176.225 160.603,188.888 168.414,196.698 L227.716,256 L168.414,315.302 C160.603,323.113 160.602,335.776 168.413,343.586 C176.226,351.398 188.889,351.395 196.697,343.586 L256,284.284 L315.303,343.586 C323.111,351.396 335.776,351.397 343.587,343.586 C351.398,335.775 351.397,323.112 343.586,315.302 Z" id="Path"></path>
        </g>
    </g>
</svg>