<?xml version="1.0" encoding="UTF-8"?>
<svg width="55px" height="56px" viewBox="0 0 55 56" version="1.1" xmlns="http://www.w3.org/2000/svg" xmlns:xlink="http://www.w3.org/1999/xlink">
    <title>002-tent</title>
    <g id="Balnearios-Desktop" stroke="none" stroke-width="1" fill="none" fill-rule="evenodd">
        <g id="Detalle-Balnearios-Desktop" transform="translate(-1431.000000, -482.000000)" fill="#6D7278" fill-rule="nonzero">
            <g id="Card-Detalle-Balnearios" transform="translate(300.000000, 311.000000)">
                <g id="Card-Alquiler-Simple" transform="translate(1058.000000, 136.000000)">
                    <g id="002-tent" transform="translate(73.000000, 35.000000)">
                        <path d="M27.5,0 L0,11.1361904 L0,55 L9.90754902,55 L9.90754902,22.4943223 L22.5082647,22.4943223 C22.5068627,22.542406 22.5033039,22.5902736 22.5033039,22.6383574 C22.5033039,25.3989034 24.7448235,27.6447914 27.5,27.6447914 C30.2551765,27.6447914 32.4966961,25.3989034 32.4966961,22.6383574 C32.4966961,22.5902736 32.495402,22.5421899 32.494,22.4943223 L45.092451,22.4943223 L45.092451,55 L55,55 L55,11.1361904 L27.5,0 Z M45.0630098,10.6085661 L9.9369902,10.6085661 L27.5,3.496281 L45.0630098,10.6085661 Z M6.6722549,51.7584007 L3.23529412,51.7584007 L3.23529412,22.4943223 L6.6722549,22.4943223 L6.6722549,51.7584007 Z M29.261402,22.6384654 C29.261402,23.6115935 28.4712353,24.4033001 27.5,24.4033001 C26.5287647,24.4033001 25.738598,23.6115935 25.738598,22.6384654 C25.738598,22.5901656 25.7411863,22.5421899 25.7450686,22.4944303 L29.2553627,22.4944303 C29.2591373,22.5420819 29.261402,22.5901656 29.261402,22.6384654 Z M51.7647059,51.7584007 L48.3277451,51.7584007 L48.3277451,22.4943223 L51.7647059,22.4943223 L51.7647059,51.7584007 Z M3.23529412,19.252831 L3.23529412,13.8501654 L51.7647059,13.8501654 L51.7647059,19.252831 L3.23529412,19.252831 Z" id="XMLID_690_"></path>
                        <polygon id="XMLID_702_" points="15.8125 43.0518758 25.8916284 43.0518758 25.8916284 51.8231242 20.6509106 51.8231242 20.6509106 55 34.0529346 55 34.0529346 51.8231242 29.1083716 51.8231242 29.1083716 43.0518758 39.1875 43.0518758 39.1875 39.875 15.8125 39.875"></polygon>
                    </g>
                </g>
            </g>
        </g>
    </g>
</svg>