<?xml version="1.0" encoding="utf-8"?>
<!-- Generator: Adobe Illustrator 23.0.1, SVG Export Plug-In . SVG Version: 6.00 Build 0)  -->
<svg version="1.1" id="Capa_1" xmlns="http://www.w3.org/2000/svg" xmlns:xlink="http://www.w3.org/1999/xlink" x="0px" y="0px"
	 viewBox="0 0 512 512" style="enable-background:new 0 0 512 512;" xml:space="preserve">
<style type="text/css">
	.st0{fill:#FFFFFF;}
</style>
<g>
	<g>
		<path class="st0" d="M504.5,328.7c-22.1,0-33.3,4.3-44.1,8.5c-10,3.9-19.4,7.5-38.7,7.5c-19.3,0-28.7-3.6-38.7-7.5
			c-10.8-4.2-22-8.5-44.1-8.5c-22.1,0-33.3,4.3-44.1,8.5c-10,3.9-19.4,7.5-38.7,7.5c-19.3,0-28.7-3.6-38.7-7.5
			c-10.8-4.2-22-8.5-44.1-8.5c-22.1,0-33.3,4.3-44.1,8.5c-10,3.9-19.4,7.5-38.7,7.5c-19.3,0-28.7-3.6-38.7-7.5
			c-10.8-4.2-22-8.5-44.1-8.5c-4.1,0-7.5,3.4-7.5,7.5s3.4,7.5,7.5,7.5c19.3,0,28.7,3.6,38.7,7.5c10.8,4.2,22,8.5,44.1,8.5
			c22.1,0,33.3-4.3,44.1-8.5c10-3.9,19.4-7.5,38.7-7.5c19.3,0,28.7,3.6,38.7,7.5c10.8,4.2,22,8.5,44.1,8.5c22.1,0,33.3-4.3,44.1-8.5
			c10-3.9,19.4-7.5,38.7-7.5c19.3,0,28.7,3.6,38.7,7.5c10.8,4.2,22,8.5,44.1,8.5s33.3-4.3,44.1-8.5c10-3.9,19.4-7.5,38.7-7.5
			c4.1,0,7.5-3.4,7.5-7.5S508.6,328.7,504.5,328.7z"/>
	</g>
</g>
<g>
	<g>
		<path class="st0" d="M471.4,373c-1.5-3.9-5.8-5.8-9.7-4.3l-1.4,0.5c-4.5,1.7-8.8,3.4-13.9,4.7c-4,1-6.4,5.1-5.4,9.1
			c0.9,3.4,3.9,5.6,7.3,5.6c0.6,0,1.3-0.1,1.9-0.2c5.9-1.5,10.8-3.4,15.5-5.2l1.3-0.5C471,381.2,472.9,376.9,471.4,373z"/>
	</g>
</g>
<g>
	<g>
		<path class="st0" d="M416.6,376.7c-16-0.6-24.6-3.9-33.7-7.4c-10.8-4.2-22-8.5-44.1-8.5c-22.1,0-33.3,4.3-44.1,8.5
			c-10,3.9-19.4,7.5-38.7,7.5c-19.3,0-28.7-3.6-38.7-7.5c-10.8-4.2-22-8.5-44.1-8.5c-22.1,0-33.3,4.3-44.1,8.5
			c-9.1,3.5-17.7,6.8-33.6,7.4c-4.1,0.2-7.4,3.6-7.2,7.8c0.2,4.1,3.6,7.4,7.8,7.2c18.5-0.7,28.6-4.6,38.5-8.4
			c10-3.9,19.4-7.5,38.7-7.5c19.3,0,28.7,3.6,38.7,7.5c10.8,4.2,22,8.5,44.1,8.5c22.1,0,33.3-4.3,44.1-8.5c10-3.9,19.4-7.5,38.7-7.5
			c19.3,0,28.7,3.6,38.7,7.5c9.9,3.8,20,7.8,38.6,8.4c4.1,0.1,7.6-3.1,7.8-7.2C424,380.3,420.7,376.8,416.6,376.7z"/>
	</g>
</g>
<g>
	<g>
		<path class="st0" d="M338.8,392.8c-22.1,0-33.3,4.3-44.1,8.5c-10,3.9-19.4,7.5-38.7,7.5c-19.3,0-28.7-3.6-38.7-7.5
			c-10.8-4.2-22-8.5-44.1-8.5c-4.1,0-7.5,3.4-7.5,7.5s3.4,7.5,7.5,7.5c19.3,0,28.7,3.6,38.7,7.5c10.8,4.2,22,8.5,44.1,8.5
			c22.1,0,33.3-4.3,44.1-8.5c10-3.9,19.4-7.5,38.7-7.5c4.1,0,7.5-3.4,7.5-7.5S342.9,392.8,338.8,392.8z"/>
	</g>
</g>
<g>
	<g>
		<path class="st0" d="M65.5,374c-5.1-1.3-9.4-3-13.9-4.7c-3.9-1.5-8.2,0.4-9.7,4.3c-1.5,3.9,0.4,8.2,4.3,9.7
			c4.7,1.8,9.6,3.7,15.6,5.3c0.6,0.2,1.3,0.2,1.9,0.2c3.3,0,6.4-2.2,7.3-5.6C71.9,379.1,69.5,375,65.5,374z"/>
	</g>
</g>
<g>
	<g>
		<path class="st0" d="M354.3,227.7c-22.4-32.1-59.1-51.3-98.3-51.3c-66,0-119.7,53.7-119.7,119.7c0,2.8,0.1,5.7,0.3,8.5
			c0.3,4,3.6,7,7.5,7c0.2,0,0.4,0,0.5,0c4.1-0.3,7.2-3.9,7-8c-0.2-2.5-0.3-5-0.3-7.5c0-57.7,47-104.7,104.7-104.7
			c34.2,0,66.4,16.8,86,44.9c2.4,3.4,7,4.2,10.4,1.9C355.8,235.8,356.6,231.1,354.3,227.7z"/>
	</g>
</g>
<g>
	<g>
		<path class="st0" d="M103.7,288.6H55.6c-4.1,0-7.5,3.4-7.5,7.5s3.4,7.5,7.5,7.5h48.1c4.1,0,7.5-3.4,7.5-7.5
			S107.8,288.6,103.7,288.6z"/>
	</g>
</g>
<g>
	<g>
		<path class="st0" d="M256,88.2c-4.1,0-7.5,3.4-7.5,7.5v48.1c0,4.1,3.4,7.5,7.5,7.5s7.5-3.4,7.5-7.5V95.7
			C263.5,91.5,260.1,88.2,256,88.2z"/>
	</g>
</g>
<g>
	<g>
		<path class="st0" d="M403,149.1c-2.9-2.9-7.7-2.9-10.6,0l-34,34c-2.9,2.9-2.9,7.7,0,10.6c1.5,1.5,3.4,2.2,5.3,2.2
			c1.9,0,3.8-0.7,5.3-2.2l34-34C405.9,156.7,405.9,152,403,149.1z"/>
	</g>
</g>
<g>
	<g>
		<path class="st0" d="M204.6,152.5l-6.1-14.8c-1.6-3.8-6-5.6-9.8-4.1c-3.8,1.6-5.6,6-4.1,9.8l6.1,14.8c1.2,2.9,4,4.6,6.9,4.6
			c1,0,1.9-0.2,2.9-0.6C204.4,160.7,206.2,156.3,204.6,152.5z"/>
	</g>
</g>
<g>
	<g>
		<path class="st0" d="M418.5,228.8c-1.6-3.8-6-5.6-9.8-4.1l-14.8,6.1c-3.8,1.6-5.6,6-4.1,9.8c1.2,2.9,4,4.6,6.9,4.6
			c1,0,1.9-0.2,2.9-0.6l14.8-6.1C418.2,237,420,232.6,418.5,228.8z"/>
	</g>
</g>
<g>
	<g>
		<path class="st0" d="M323.3,133.6c-3.8-1.6-8.2,0.2-9.8,4.1l-6.1,14.8c-1.6,3.8,0.2,8.2,4.1,9.8c0.9,0.4,1.9,0.6,2.9,0.6
			c2.9,0,5.7-1.7,6.9-4.6l6.1-14.8C328.9,139.6,327.1,135.2,323.3,133.6z"/>
	</g>
</g>
<g>
	<g>
		<path class="st0" d="M118.2,230.9l-14.8-6.1c-3.8-1.6-8.2,0.2-9.8,4.1c-1.6,3.8,0.2,8.2,4.1,9.8l14.8,6.1c0.9,0.4,1.9,0.6,2.9,0.6
			c2.9,0,5.7-1.7,6.9-4.6C123.8,236.8,122,232.5,118.2,230.9z"/>
	</g>
</g>
<g>
	<g>
		<path class="st0" d="M116.9,136.3c-11.1,0-21.8,3.7-30.6,10.5c-4-1.3-8.2-1.9-12.4-1.9c-23.1,0-41.9,18.8-41.9,41.9
			c0,4.1,3.4,7.5,7.5,7.5h120.2c4.1,0,7.5-3.4,7.5-7.5C167.3,158.9,144.7,136.3,116.9,136.3z M48.1,179.2
			c3.3-11.2,13.6-19.4,25.8-19.4c3.7,0,7.3,0.8,10.8,2.3c2.7,1.2,5.9,0.7,8.1-1.4c6.6-6.2,15.2-9.5,24-9.5c17,0,31.2,12,34.6,27.9
			L48.1,179.2L48.1,179.2z"/>
	</g>
</g>
<g>
	<g>
		<path class="st0" d="M382,262.2c-4.2,0-8.3,0.6-12.4,1.9c-8.8-6.8-19.5-10.5-30.6-10.5c-27.8,0-50.4,22.6-50.4,50.4
			c0,4.1,3.4,7.5,7.5,7.5h120.2c4.1,0,7.5-3.4,7.5-7.5C423.8,281,405,262.2,382,262.2z M304.4,296.6c3.5-16,17.7-27.9,34.6-27.9
			c8.8,0,17.4,3.4,24,9.5c2.2,2,5.4,2.6,8.1,1.4c3.5-1.5,7.1-2.3,10.8-2.3c12.2,0,22.5,8.2,25.8,19.4L304.4,296.6L304.4,296.6z"/>
	</g>
</g>
</svg>
