<?xml version="1.0" encoding="UTF-8"?>
<svg width="35px" height="35px" viewBox="0 0 35 35" version="1.1" xmlns="http://www.w3.org/2000/svg" xmlns:xlink="http://www.w3.org/1999/xlink">
    <title>icon-calendar</title>
    <defs>
        <polygon id="path-1" points="-1.11998084e-15 -2.77555756e-16 34.5714634 -2.77555756e-16 34.5714634 23.7321346 -1.11998084e-15 23.7321346"></polygon>
    </defs>
    <g id="Page-1" stroke="none" stroke-width="1" fill="none" fill-rule="evenodd">
        <g id="icon-calendar">
            <g id="Fill-1-Clipped" transform="translate(0.001537, 11.267866)">
                <mask id="mask-2" fill="white">
                    <use xlink:href="#path-1"></use>
                </mask>
                <g id="path-2"></g>
                <path d="M-1.11998084e-15,0.547788465 C-1.11998084e-15,0.244903847 0.242439025,-2.77555756e-16 0.540365854,-2.77555756e-16 C0.836585366,-2.77555756e-16 1.0807317,0.246634616 1.0807317,0.547788465 L1.0807317,20.3555769 C1.0807317,20.98125 1.33426829,21.5515385 1.74146341,21.9660577 C2.14951219,22.3797116 2.71207317,22.6367308 3.32926829,22.6367308 L31.2413414,22.6367308 C31.8593902,22.6367308 32.4219512,22.3797116 32.83,21.9660577 C33.2389024,21.5515385 33.4907317,20.98125 33.4907317,20.3555769 L33.4907317,0.547788465 C33.4907317,0.244903847 33.734878,-2.77555756e-16 34.0310975,-2.77555756e-16 C34.3290244,-2.77555756e-16 34.5714634,0.246634616 34.5714634,0.547788465 L34.5714634,20.3555769 C34.5714634,21.2841346 34.1967073,22.12875 33.594878,22.7405769 C32.9904878,23.3524039 32.1581707,23.7323077 31.2413414,23.7323077 L3.32926829,23.7323077 C2.41329268,23.7323077 1.58012195,23.3524039 0.977439025,22.7405769 C0.374756098,22.12875 -1.11998084e-15,21.2841346 -1.11998084e-15,20.3555769 L-1.11998084e-15,0.547788465 Z" id="Fill-1" fill="#1769AA" fill-rule="nonzero" mask="url(#mask-2)"></path>
            </g>
            <path d="M4.63058469,13.4615385 L11.5082811,13.4615385 L11.5223344,13.4615385 C11.8502453,13.4615385 12.1153846,13.7054379 12.1153846,14.003252 L12.1153846,20.9839112 L12.1153846,20.9976038 C12.1153846,21.2962737 11.8493084,21.5384615 11.5223344,21.5384615 L4.64651179,21.5384615 L4.63152158,21.5384615 C4.3036107,21.5384615 4.03845184,21.2954179 4.03845184,20.9976038 L4.03845184,14.0160888 L4.03845184,14.003252 C4.03659756,13.7054379 4.3036107,13.4615385 4.63058469,13.4615385 L4.63058469,13.4615385 Z M5.22363493,20.4558903 L10.930221,20.4558903 L10.930221,14.5449655 L5.22363493,14.5449655 L5.22363493,20.4558903 Z" id="Fill-4" fill="#1769AA" fill-rule="nonzero"></path>
            <path d="M23.4775288,13.4615385 L30.3536383,13.4615385 L30.3686251,13.4615385 C30.6964603,13.4615385 30.9615385,13.7054379 30.9615385,14.003252 L30.9615385,20.9839112 L30.9615385,20.9976038 C30.9615385,21.2962737 30.6955236,21.5384615 30.3686251,21.5384615 L23.4943889,21.5384615 L23.4784655,21.5384615 C23.1515669,21.5384615 22.8846154,21.2954179 22.8846154,20.9976038 L22.8846154,14.0160888 L22.8846154,14.003252 C22.8846154,13.7054379 23.1506302,13.4615385 23.4775288,13.4615385 L23.4775288,13.4615385 Z M24.0713789,20.4558903 L29.7766483,20.4558903 L29.7766483,14.5449655 L24.0713789,14.5449655 L24.0713789,20.4558903 Z" id="Fill-6" fill="#1769AA" fill-rule="nonzero"></path>
            <path d="M14.0544519,13.4615385 L20.9305614,13.4615385 L20.9455481,13.4615385 C21.2733833,13.4615385 21.5384615,13.7054379 21.5384615,14.003252 L21.5384615,20.9839112 L21.5384615,20.9976038 C21.5384615,21.2962737 21.2724467,21.5384615 20.9455481,21.5384615 L14.071312,21.5384615 L14.0544519,21.5384615 C13.7266167,21.5384615 13.4615385,21.2954179 13.4615385,20.9976038 L13.4615385,14.0160888 L13.4615385,14.003252 C13.4615385,13.7054379 13.7275533,13.4615385 14.0544519,13.4615385 L14.0544519,13.4615385 Z M14.6473653,20.4558903 L20.3526347,20.4558903 L20.3526347,14.5449655 L14.6473653,14.5449655 L14.6473653,20.4558903 Z" id="Fill-8" fill="#1769AA" fill-rule="nonzero"></path>
            <path d="M4.63058469,22.8846154 L11.5082811,22.8846154 L11.5223344,22.8846154 C11.8502453,22.8846154 12.1153846,23.1284632 12.1153846,23.4262141 L12.1153846,30.4053944 L12.1153846,30.4207953 C12.1153846,30.7185463 11.8493084,30.9615385 11.5223344,30.9615385 L4.64651179,30.9615385 L4.63152158,30.9615385 C4.3036107,30.9615385 4.03845184,30.7176907 4.03845184,30.4207953 L4.03845184,23.4407595 L4.03845184,23.4270698 C4.03659756,23.1284632 4.3036107,22.8846154 4.63058469,22.8846154 L4.63058469,22.8846154 Z M5.22363493,29.8791965 L10.930221,29.8791965 L10.930221,23.9686685 L5.22363493,23.9686685 L5.22363493,29.8791965 Z" id="Fill-10" fill="#1769AA" fill-rule="nonzero"></path>
            <path d="M23.4775288,22.8846154 L30.3536383,22.8846154 L30.3686251,22.8846154 C30.6964603,22.8846154 30.9615385,23.1284632 30.9615385,23.4262141 L30.9615385,30.4053944 L30.9615385,30.4207953 C30.9615385,30.7185463 30.6955236,30.9615385 30.3686251,30.9615385 L23.4943889,30.9615385 L23.4784655,30.9615385 C23.1515669,30.9615385 22.8846154,30.7176907 22.8846154,30.4207953 L22.8846154,23.4407595 L22.8846154,23.4270698 C22.8846154,23.1284632 23.1506302,22.8846154 23.4775288,22.8846154 L23.4775288,22.8846154 Z M24.0713789,29.8791965 L29.7766483,29.8791965 L29.7766483,23.9686685 L24.0713789,23.9686685 L24.0713789,29.8791965 Z" id="Fill-12" fill="#1769AA" fill-rule="nonzero"></path>
            <path d="M14.0544519,22.8846154 L20.9305614,22.8846154 L20.9455481,22.8846154 C21.2733833,22.8846154 21.5384615,23.1284632 21.5384615,23.4262141 L21.5384615,30.4053944 L21.5384615,30.4207953 C21.5384615,30.7185463 21.2724467,30.9615385 20.9455481,30.9615385 L14.071312,30.9615385 L14.0544519,30.9615385 C13.7266167,30.9615385 13.4615385,30.7176907 13.4615385,30.4207953 L13.4615385,23.4407595 L13.4615385,23.4270698 C13.4615385,23.1284632 13.7275533,22.8846154 14.0544519,22.8846154 L14.0544519,22.8846154 Z M14.6473653,29.8791965 L20.3526347,29.8791965 L20.3526347,23.9686685 L14.6473653,23.9686685 L14.6473653,29.8791965 Z" id="Fill-14" fill="#1769AA" fill-rule="nonzero"></path>
            <path d="M26.9230769,6.20425206 C26.9230769,6.4953753 26.6200353,6.73076923 26.2500055,6.73076923 C25.8789125,6.73076923 25.5769121,6.49454352 25.5769121,6.20425206 L25.5769121,0.525685387 C25.5748076,0.236225712 25.8789125,0 26.2478789,0 C26.6200353,0 26.9209503,0.236225712 26.9209503,0.525685387 L26.9209503,6.20425206 L26.9230769,6.20425206 Z" id="Fill-16" fill="#1769AA" fill-rule="nonzero"></path>
            <path d="M10.7692308,6.20425206 C10.7692308,6.4953753 10.4661873,6.73076923 10.0961552,6.73076923 C9.72505989,6.73076923 9.42307414,6.49454352 9.42307414,6.20425206 L9.42307414,0.525685387 C9.4220164,0.236225712 9.72505989,0 10.0940286,0 C10.4661873,0 10.7692308,0.236225712 10.7692308,0.525685387 L10.7692308,6.20425206 Z" id="Fill-18" fill="#1769AA" fill-rule="nonzero"></path>
            <path d="M25.7027334,2.69314164 L11.4828761,2.69314164 C11.1803995,2.69314164 10.9358256,2.92914796 10.9358256,3.22102858 C10.9358256,3.51207525 11.1812637,3.74891553 11.4828761,3.74891553 L25.7027334,3.74891553 C26.00521,3.74891553 26.2498019,3.51124131 26.2498019,3.22102858 C26.2515124,2.92914796 26.00521,2.69314164 25.7027334,2.69314164 L25.7027334,2.69314164 Z M9.29640238,2.69314164 C9.59801477,2.69314164 9.84258871,2.92914796 9.84258871,3.22102858 C9.84258871,3.51207525 9.59715055,3.74891553 9.29640238,3.74891553 L3.37218203,3.74891553 C2.75080866,3.74891553 2.18128843,3.99826497 1.76646337,4.39772444 L1.73967258,4.42357673 C1.3421319,4.81886648 1.09323687,5.35926259 1.09323687,5.9463596 L1.09323687,8.36813478 L33.9058989,8.36813478 L33.9058989,5.9463596 C33.9058989,5.34508553 33.6474975,4.79634997 33.2344008,4.39772444 L33.2084743,4.37187216 C32.7971061,3.98742369 32.2370923,3.74891553 31.6269538,3.74891553 L27.8866145,3.74891553 C27.5850021,3.74891553 27.3404282,3.51124131 27.3404282,3.22102858 C27.3404282,2.92998191 27.5867305,2.69314164 27.8866145,2.69314164 L31.6269538,2.69314164 C32.528334,2.69314164 33.3597126,3.04840205 33.9698511,3.61798622 L34.0078767,3.65134401 C34.617151,4.24094285 35,5.05403886 35,5.9463596 L35,8.88101072 L35,8.89602173 C35,9.1870684 34.7536976,9.4230791 34.4529495,9.4230791 L0.561742265,9.4230791 L0.547050544,9.4230791 C0.246302378,9.42390867 0,9.1870684 0,8.89602173 L0,5.9463596 C0,5.07572142 0.36729302,4.27513458 0.958418726,3.68636968 L0.992987481,3.65051006 C1.60485444,3.05924333 2.44833206,2.69230769 3.37218203,2.69230769 L9.29640238,2.69230769 L9.29640238,2.69314164 Z" id="Fill-20" fill="#1769AA" fill-rule="nonzero"></path>
        </g>
    </g>
</svg>