<?xml version="1.0" encoding="UTF-8"?>
<svg width="55px" height="57px" viewBox="0 0 55 57" version="1.1" xmlns="http://www.w3.org/2000/svg" xmlns:xlink="http://www.w3.org/1999/xlink">
    <title>003-deck-chair</title>
    <g id="Balnearios-Desktop" stroke="none" stroke-width="1" fill="none" fill-rule="evenodd">
        <g id="Detalle-Balnearios-Desktop-2" transform="translate(-1205.000000, -482.000000)" fill="#0072C0" fill-rule="nonzero">
            <g id="Card-Detalle-Balnearios" transform="translate(300.000000, 311.000000)">
                <g id="Crd-Alquiler-Active" transform="translate(839.000000, 136.000000)">
                    <g id="003-deck-chair" transform="translate(66.000000, 35.000000)">
                        <path d="M32.3517572,40.6824974 L32.3517572,22.8062747 L50.2415007,22.8062747 C51.1678174,22.8062747 51.9188004,22.0590679 51.9188004,21.1374089 C51.9186886,9.48227284 42.388607,0 30.6744575,0 C18.960308,0 9.43011454,9.48227284 9.43011454,21.1374089 C9.43011454,22.0590679 10.1810975,22.8062747 11.1074143,22.8062747 L28.9971577,22.8062747 L28.9971577,40.6824974 L18.2163696,40.6824974 L13.2924885,35.7834863 C9.76311445,32.2718589 4.02059927,32.2718589 0.491337001,35.7834863 C0.176787392,36.0964542 0,36.5209024 0,36.9634856 C0,37.4060688 0.176787392,37.8306283 0.491337001,38.143485 L12.6103867,50.2015965 C12.5850035,50.2647909 12.5619686,50.3294317 12.5439656,50.3969651 L11.3565492,54.8687466 C11.1199381,55.7598097 11.654214,56.6731243 12.5497802,56.9085456 C12.6933571,56.946262 12.837493,56.9642857 12.9792808,56.9642857 C13.7221009,56.9642857 14.4011837,56.4695226 14.5998878,55.7212032 L15.7585664,51.357453 L48.1584062,51.357453 L48.1584062,55.2950862 C48.1584062,56.2167451 48.9093892,56.9642857 49.835706,56.9642857 C50.7620227,56.9642857 51.5130057,56.2167451 51.5130057,55.2950862 L51.5130057,51.3575642 L53.3227003,51.3575642 C54.249017,51.3575642 55,50.6103574 55,49.6886985 C55,44.7227102 50.939481,40.6824974 45.9482843,40.6824974 L32.3517572,40.6824974 Z M48.4861506,19.4685432 L41.4409326,19.4685432 C41.2572124,14.6539766 40.2809121,10.158386 38.6445385,6.66589495 C38.3172414,5.96730774 37.9680276,5.32056662 37.5998044,4.72589411 C43.5440428,7.21828953 47.8619714,12.817668 48.4861506,19.4685432 L48.4861506,19.4685432 Z M23.7491105,4.72589411 C23.3808873,5.32056662 23.0316735,5.96730774 22.7043764,6.66589495 C21.0680028,10.1584973 20.0918144,14.6539766 19.9079823,19.4685432 L12.8626525,19.4685432 C13.4869435,12.817668 17.8047603,7.21828953 23.7491105,4.72589411 Z M30.6743456,3.33773156 C30.6743456,3.33773156 30.6744575,3.33773156 30.6743456,3.33773156 C34.0053511,3.33773156 37.6964169,9.88090925 38.0849913,19.4685432 L23.2638118,19.4685432 C23.6523862,9.88090925 27.3433402,3.33773156 30.6743456,3.33773156 L30.6743456,3.33773156 Z M10.9204513,38.1435963 L16.3355575,43.5314738 C16.6501071,43.8444418 17.0767004,44.0203402 17.5215203,44.0203402 L45.9482843,44.0203402 C48.5062782,44.0203402 50.6758095,45.7061172 51.3935819,48.0199439 L15.1616714,48.0199439 L4.22746624,37.1408304 C6.37955361,36.0096732 9.11176306,36.3440027 10.9204513,38.1435963 Z" id="Shape"></path>
                    </g>
                </g>
            </g>
        </g>
    </g>
</svg>