<?xml version="1.0" encoding="UTF-8"?>
<svg width="30px" height="30px" viewBox="0 0 30 30" version="1.1" xmlns="http://www.w3.org/2000/svg" xmlns:xlink="http://www.w3.org/1999/xlink">
    <title>Desktop</title>
    <g id="Desktop" stroke="none" stroke-width="1" fill="none" fill-rule="evenodd">
        <g id="icon-playa" transform="translate(0.000000, 5.000000)" fill="#FFFFFF" fill-rule="nonzero">
            <path d="M29.5603751,14 C28.2649472,14 27.6084408,14.2774194 26.975381,14.5483871 C26.3892145,14.8 25.8382181,15.0322581 24.7069168,15.0322581 C23.5756155,15.0322581 23.024619,14.8 22.4384525,14.5483871 C21.8053927,14.2774194 21.1488863,14 19.8534584,14 C18.5580305,14 17.901524,14.2774194 17.2684642,14.5483871 C16.6822978,14.8 16.1313013,15.0322581 15,15.0322581 C13.8686987,15.0322581 13.3177022,14.8 12.7315358,14.5483871 C12.098476,14.2774194 11.4419695,14 10.1465416,14 C8.85111372,14 8.19460727,14.2774194 7.56154748,14.5483871 C6.97538101,14.8 6.42438453,15.0322581 5.29308324,15.0322581 C4.16178195,15.0322581 3.61078546,14.8 3.02461899,14.5483871 C2.3915592,14.2774194 1.73505275,14 0.439624853,14 C0.1992966,14 0,14.2193548 0,14.483871 C0,14.7483871 0.1992966,14.9677419 0.439624853,14.9677419 C1.57092614,14.9677419 2.12192263,15.2 2.7080891,15.4516129 C3.34114889,15.7225806 3.99765533,16 5.29308324,16 C6.58851114,16 7.24501758,15.7225806 7.87807737,15.4516129 C8.46424385,15.2 9.01524033,14.9677419 10.1465416,14.9677419 C11.2778429,14.9677419 11.8288394,15.2 12.4150059,15.4516129 C13.0480657,15.7225806 13.7045721,16 15,16 C16.2954279,16 16.9519343,15.7225806 17.5849941,15.4516129 C18.1711606,15.2 18.7221571,14.9677419 19.8534584,14.9677419 C20.9847597,14.9677419 21.5357562,15.2 22.1219226,15.4516129 C22.7549824,15.7225806 23.4114889,16 24.7069168,16 C26.0023447,16 26.6588511,15.7225806 27.2919109,15.4516129 C27.8780774,15.2 28.4290739,14.9677419 29.5603751,14.9677419 C29.8007034,14.9677419 30,14.7483871 30,14.483871 C30,14.2193548 29.8007034,14 29.5603751,14 Z" id="Path"></path>
            <path d="M27.9671627,17.2357616 C27.8708171,17.044702 27.5946266,16.9516217 27.3441281,17.0251061 L27.2542056,17.049601 C26.9651689,17.1328833 26.6889783,17.2161657 26.3614035,17.2798523 C26.104482,17.3288419 25.9503291,17.5296994 26.0145595,17.725658 C26.0723668,17.8922228 26.2650579,18 26.4834412,18 C26.5219794,18 26.5669406,17.995101 26.6054789,17.9902021 C26.984438,17.9167176 27.2991669,17.8236373 27.6010496,17.7354559 L27.6845491,17.7109611 C27.9414706,17.6374767 28.0635083,17.4268212 27.9671627,17.2357616 Z" id="Path"></path>
            <path d="M24.5591415,17.0258065 C23.605934,16.9870968 23.0935849,16.7741935 22.5514482,16.5483871 C21.9080331,16.2774194 21.2407878,16 19.9241699,16 C18.607552,16 17.9403067,16.2774194 17.2968916,16.5483871 C16.7011369,16.8 16.1411275,17.0322581 14.9913209,17.0322581 C13.8415143,17.0322581 13.2815049,16.8 12.6857502,16.5483871 C12.0423351,16.2774194 11.3750898,16 10.0584719,16 C8.74185403,16 8.07460875,16.2774194 7.43119367,16.5483871 C6.88905689,16.7741935 6.37670784,16.9870968 5.42945785,17.0258065 C5.18519842,17.0387097 4.98859937,17.2580645 5.00051446,17.5290323 C5.01242956,17.7935484 5.21498616,18.0064516 5.46520313,17.9935484 C6.56734934,17.9483871 7.1690616,17.6967742 7.75885876,17.4516129 C8.35461347,17.2 8.91462289,16.9677419 10.0644295,16.9677419 C11.2142361,16.9677419 11.7742455,17.2 12.3700002,17.4516129 C13.0134153,17.7225806 13.6806606,18 14.9972785,18 C16.3138964,18 16.9811416,17.7225806 17.6245567,17.4516129 C18.2203114,17.2 18.7803209,16.9677419 19.9301274,16.9677419 C21.079934,16.9677419 21.6399434,17.2 22.2356982,17.4516129 C22.8254953,17.6967742 23.4272076,17.9548387 24.5353113,17.9935484 C24.7795708,18 24.9880849,17.7935484 25,17.5290323 C25,17.2580645 24.8034009,17.0322581 24.5591415,17.0258065 Z" id="Path"></path>
            <path d="M20.5431894,18 C19.1971207,18 18.5149502,18.2774194 17.8571429,18.5483871 C17.248062,18.8 16.675526,19.0322581 15.5,19.0322581 C14.324474,19.0322581 13.751938,18.8 13.1428571,18.5483871 C12.4850498,18.2774194 11.8028793,18 10.4568106,18 C10.2070875,18 10,18.2193548 10,18.483871 C10,18.7483871 10.2070875,18.9677419 10.4568106,18.9677419 C11.6323367,18.9677419 12.2048726,19.2 12.8139535,19.4516129 C13.4717608,19.7225806 14.1539313,20 15.5,20 C16.8460687,20 17.5282392,19.7225806 18.1860465,19.4516129 C18.7951274,19.2 19.3676633,18.9677419 20.5431894,18.9677419 C20.7929125,18.9677419 21,18.7483871 21,18.483871 C21,18.2193548 20.7929125,18 20.5431894,18 Z" id="Path"></path>
            <path d="M3.61822608,17.2604614 C3.27595712,17.1955019 2.9873774,17.1105549 2.68537538,17.0256079 C2.42364029,16.9506547 2.13506057,17.0455955 2.03439323,17.2404739 C1.93372589,17.4353523 2.06123785,17.6502182 2.32297294,17.7251715 C2.63839728,17.8151154 2.96724393,17.9100561 3.3699133,17.9900062 C3.41018024,18 3.45715833,18 3.49742527,18 C3.71889342,18 3.92693926,17.8900686 3.98733967,17.7201746 C4.04774007,17.5153024 3.88667232,17.3104302 3.61822608,17.2604614 Z" id="Path"></path>
            <path d="M20.9225487,8.03550296 C19.5947272,6.13609467 17.4192339,5 15.0955462,5 C11.183215,5 8,8.17751479 8,12.0828402 C8,12.2485207 8.00592777,12.4201183 8.01778332,12.5857988 C8.03556665,12.8224852 8.23118321,13 8.46236642,13 C8.47422197,13 8.48607752,13 8.49200529,13 C8.73504405,12.9822485 8.91880507,12.7692308 8.90694952,12.5266272 C8.89509397,12.3786982 8.88916619,12.2307692 8.88916619,12.0828402 C8.88916619,8.66863905 11.6752203,5.88757396 15.0955462,5.88757396 C17.1228451,5.88757396 19.0315886,6.8816568 20.1934324,8.5443787 C20.335699,8.74556213 20.6083766,8.79289941 20.8099209,8.65680473 C21.0114653,8.5147929 21.0588875,8.23668639 20.9225487,8.03550296 Z" id="Path"></path>
            <path d="M6.52456418,12 L3.47543582,12 C3.2155309,12 3,12.2266667 3,12.5 C3,12.7733333 3.2155309,13 3.47543582,13 L6.52456418,13 C6.7844691,13 7,12.7733333 7,12.5 C7,12.2266667 6.7844691,12 6.52456418,12 Z" id="Path"></path>
            <path d="M15.5,0 C15.2266667,0 15,0.215530903 15,0.475435816 L15,3.52456418 C15,3.7844691 15.2266667,4 15.5,4 C15.7733333,4 16,3.7844691 16,3.52456418 L16,0.475435816 C16,0.209191759 15.7733333,0 15.5,0 Z" id="Path"></path>
            <path d="M23.8667007,3.13323124 C23.6889683,2.95558959 23.3947906,2.95558959 23.2170582,3.13323124 L21.1332993,5.21592649 C20.9555669,5.39356815 20.9555669,5.68759571 21.1332993,5.86523737 C21.2252298,5.95712098 21.3416752,6 21.4581205,6 C21.5745659,6 21.6910112,5.95712098 21.7829418,5.86523737 L23.8667007,3.78254211 C24.0444331,3.59877489 24.0444331,3.31087289 23.8667007,3.13323124 Z" id="Path"></path>
            <path d="M11.9723884,4.30704481 L11.6834348,3.31134221 C11.6076436,3.05568884 11.399218,2.93458988 11.2192141,3.03550568 C11.0392102,3.14314921 10.9539451,3.4391689 11.0249993,3.69482227 L11.313953,4.69052487 C11.3707964,4.88562876 11.5034308,5 11.6408022,5 C11.6881717,5 11.7308042,4.98654456 11.7781737,4.95963368 C11.9629145,4.85871787 12.0481796,4.56269818 11.9723884,4.30704481 Z" id="Path"></path>
            <path d="M24.9645274,8.22007831 C24.8569843,8.03936474 24.5612407,7.95376358 24.3058258,8.02509788 L23.3110518,8.31519071 C23.0556369,8.39128063 22.9346509,8.60052791 23.0354726,8.78124148 C23.1161299,8.91915446 23.3043304,9 23.4992523,9 C23.5664668,9 23.6269598,8.99048876 23.6941742,8.97146628 L24.6889482,8.68137345 C24.9443631,8.61003915 25.0653491,8.40079187 24.9645274,8.22007831 Z" id="Path"></path>
            <path d="M18.7807859,3.03901216 C18.600782,2.9319275 18.3923564,3.05239774 18.3165652,3.3134166 L18.0276116,4.30394971 C17.9518204,4.55827578 18.0370855,4.85275859 18.2218263,4.95984325 C18.2644588,4.98661442 18.3118283,5 18.3591978,5 C18.4965692,5 18.6292036,4.88622255 18.686047,4.6921316 L18.9750007,3.7015985 C19.0460549,3.44057964 18.9607898,3.14609682 18.7807859,3.03901216 Z" id="Path"></path>
            <path d="M6.68952357,8.31548555 L5.69658985,8.0275174 C5.44164741,7.95198477 5.1464509,8.03695898 5.03910671,8.22106976 C4.93176252,8.40045975 5.05252473,8.60817449 5.31417619,8.68370711 L6.30710991,8.97167526 C6.36749102,8.99055842 6.43458113,9 6.50167125,9 C6.69623259,9 6.88408491,8.91974658 6.96459305,8.78284369 C7.06522823,8.59401212 6.94446602,8.39101818 6.68952357,8.31548555 Z" id="Path"></path>
            <path d="M7.02364415,3 C6.36684262,3 5.73370961,3.19137931 5.21300209,3.54310345 C4.97631685,3.47586207 4.72779736,3.44482759 4.47927786,3.44482759 C3.11242061,3.44482759 2,4.41724138 2,5.61206897 C2,5.82413793 2.20118245,6 2.44378482,6 L9.55617619,6 C9.79877856,6 9.99998057,5.82413793 9.99998057,5.61206897 C10.0058781,4.16896552 8.66860655,3 7.02364415,3 Z M2.95265808,5.21896552 C3.1479234,4.63965517 3.75738788,4.21551724 4.47927786,4.21551724 C4.6982117,4.21551724 4.91122841,4.25689655 5.118328,4.33448276 C5.27809053,4.39655172 5.46743872,4.37068966 5.5976156,4.26206897 C5.98814624,3.94137931 6.4970195,3.77068966 7.01772702,3.77068966 C8.02363928,3.77068966 8.86387187,4.39137931 9.06505432,5.2137931 L2.95265808,5.21896552 L2.95265808,5.21896552 Z" id="Shape"></path>
            <path d="M22.5266272,10.4455959 C22.2781065,10.4455959 22.035503,10.4766839 21.7928994,10.5440415 C21.2721893,10.1917098 20.6390533,10 19.9822485,10 C18.3372781,10 17,11.1709845 17,12.611399 C17,12.8238342 17.2011834,13 17.443787,13 L24.556213,13 C24.7988166,13 25,12.8238342 25,12.611399 C25,11.4196891 23.887574,10.4455959 22.5266272,10.4455959 Z M17.9349112,12.2279793 C18.1420118,11.3989637 18.9822485,10.7823834 19.9822485,10.7823834 C20.5029586,10.7823834 21.0118343,10.9585492 21.4023669,11.2746114 C21.5325444,11.3782383 21.7218935,11.4093264 21.8816568,11.3471503 C22.0887574,11.2694301 22.3017751,11.2279793 22.5207101,11.2279793 C23.2426036,11.2279793 23.852071,11.6528497 24.0473373,12.2331606 L17.9349112,12.2279793 L17.9349112,12.2279793 Z" id="Shape"></path>
        </g>
    </g>
</svg>