<svg width="78" height="88" viewBox="0 0 78 88" fill="none" xmlns="http://www.w3.org/2000/svg">
<path d="M12.3597 45.1794V36.9531C12.3597 24.9525 20.3366 14.7811 31.2659 11.4589V7.73438C31.2659 3.46964 34.7356 0 39.0003 0C43.265 0 46.7347 3.46964 46.7347 7.73438V11.4589C57.6642 14.7811 65.6409 24.9523 65.6409 36.9531V45.1794C65.6409 55.7208 69.659 65.7164 76.9549 73.325C77.6699 74.0706 77.8709 75.1707 77.4656 76.1209C77.0603 77.071 76.127 77.6875 75.094 77.6875H51.6316C50.4339 83.5643 45.2254 88 39.0003 88C32.775 88 27.5668 83.5643 26.369 77.6875H2.90654C1.87357 77.6875 0.940461 77.071 0.53518 76.1209C0.129899 75.1707 0.330821 74.0706 1.04565 73.325C8.34157 65.7164 12.3597 55.7207 12.3597 45.1794V45.1794ZM41.5784 7.73438C41.5784 6.3128 40.4219 5.15625 39.0003 5.15625C37.5787 5.15625 36.4222 6.3128 36.4222 7.73438V10.4376C37.2707 10.3558 38.1306 10.3125 39.0003 10.3125C39.87 10.3125 40.7299 10.3558 41.5784 10.4376V7.73438ZM39.0003 82.8438C42.3613 82.8438 45.227 80.6883 46.2912 77.6875H31.7093C32.7736 80.6883 35.6393 82.8438 39.0003 82.8438V82.8438ZM69.5373 72.5312C63.6659 64.6608 60.4847 55.1361 60.4847 45.1794V36.9531C60.4847 25.1066 50.8468 15.4688 39.0003 15.4688C27.1538 15.4688 17.5159 25.1066 17.5159 36.9531V45.1794C17.5159 55.1361 14.3347 64.6608 8.46309 72.5312H69.5373Z" fill="white"/>
<path d="M5.48454 36.9532C5.48454 38.377 4.33023 39.5313 2.90642 39.5313C1.48261 39.5313 0.328293 38.377 0.328293 36.9532C0.328293 26.6235 4.35086 16.912 11.655 9.60785C12.6617 8.60118 14.2942 8.60101 15.301 9.60785C16.3079 10.6147 16.3079 12.247 15.301 13.2538C8.97069 19.5842 5.48454 28.0007 5.48454 36.9532V36.9532Z" fill="white"/>
<path d="M75.0938 39.5313C73.6699 39.5313 72.5156 38.377 72.5156 36.9532C72.5156 28.0009 69.0293 19.5844 62.6992 13.254C61.6923 12.2472 61.6923 10.6149 62.6992 9.60804C63.7058 8.60119 65.3383 8.60119 66.3451 9.60804C73.6493 16.9122 77.6719 26.6235 77.6719 36.9532C77.6719 38.377 76.5176 39.5313 75.0938 39.5313V39.5313Z" fill="white"/>
</svg>
